<svg xmlns="http://www.w3.org/2000/svg" xmlns:xlink="http://www.w3.org/1999/xlink" width="500" zoomAndPan="magnify" viewBox="0 0 375 374.999991" height="500" preserveAspectRatio="xMidYMid meet" version="1.0"><defs><g/><clipPath id="a68398325f"><path d="M 63.976562 206.894531 L 305.714844 206.894531 L 305.714844 234.582031 L 63.976562 234.582031 Z M 63.976562 206.894531 " clip-rule="nonzero"/></clipPath><clipPath id="5277c77c2f"><path d="M 77.824219 206.894531 L 291.792969 206.894531 C 295.464844 206.894531 298.984375 208.351562 301.582031 210.949219 C 304.179688 213.546875 305.636719 217.066406 305.636719 220.738281 C 305.636719 224.410156 304.179688 227.929688 301.582031 230.527344 C 298.984375 233.125 295.464844 234.582031 291.792969 234.582031 L 77.824219 234.582031 C 74.152344 234.582031 70.628906 233.125 68.03125 230.527344 C 65.4375 227.929688 63.976562 224.410156 63.976562 220.738281 C 63.976562 217.066406 65.4375 213.546875 68.03125 210.949219 C 70.628906 208.351562 74.152344 206.894531 77.824219 206.894531 Z M 77.824219 206.894531 " clip-rule="nonzero"/></clipPath></defs><rect x="-37.5" width="450" fill="#ffffff" y="-37.499999" height="449.999989" fill-opacity="1"/><rect x="-37.5" width="450" fill="#ffffff" y="-37.499999" height="449.999989" fill-opacity="1"/><path stroke-linecap="butt" transform="matrix(0.796661, 0, 0, 0.796661, 37.500002, 3.470349)" fill="none" stroke-linejoin="miter" d="M 258.446944 311.282676 L 237.931623 335.539199 C 225.452778 304.496538 213.846716 273.600975 203.118341 242.852511 C 192.385062 212.10895 182.926637 181.164355 174.743064 150.018725 C 168.751256 166.689874 162.739836 183.258055 156.698996 199.72817 C 150.658156 216.198285 144.195634 232.344783 137.306526 248.167666 C 130.422322 263.990548 122.910499 279.362328 114.771055 294.28791 C 106.636515 309.213492 97.526222 323.462422 87.44508 337.039602 C 81.556241 319.667284 75.966503 302.324385 70.675865 285.006003 C 65.385226 267.682717 60.143621 250.437884 54.951048 233.271503 C 49.763379 216.100219 44.448224 199.080937 39.005584 182.208753 C 33.567847 165.341472 27.703525 148.567354 21.412618 131.901108 C 20.015183 131.700073 18.691298 131.597105 17.445865 131.597105 C 16.195529 131.597105 14.871643 131.597105 13.474209 131.597105 C 10.67934 131.597105 7.908987 131.675557 5.168054 131.822655 C 2.422217 131.974657 -0.0980681 132.200208 -2.397706 132.499308 C 2.294732 128.307004 6.46252 125.110066 10.105656 122.913397 C 13.748792 120.716728 16.872181 119.069226 19.466016 117.975795 C 22.46192 116.774491 25.055754 116.078226 27.252424 115.877191 C 29.149993 115.877191 31.542793 115.852675 34.440631 115.803642 C 37.333566 115.754609 40.403019 115.676157 43.648989 115.578091 C 46.890057 115.480026 50.185061 115.35254 53.529097 115.205442 C 56.873134 115.05344 59.967103 114.901439 62.815908 114.75434 C 65.65981 114.602339 68.106546 114.45524 70.151214 114.303239 C 72.195881 114.15614 73.568799 113.979622 74.269968 113.778588 C 70.47483 116.274357 66.410012 118.97116 62.065706 121.864095 C 57.721401 124.761933 53.406515 127.20867 49.111242 129.204304 L 101.223294 299.004865 C 103.616095 294.714496 106.013798 290.120123 108.411502 285.22665 C 110.804302 280.338081 113.177489 275.346542 115.521257 270.256939 C 117.865024 265.162431 120.140146 260.12186 122.336815 255.130322 C 124.528581 250.138784 126.578151 245.34828 128.47572 240.758811 C 132.967124 230.074565 137.257494 219.34619 141.351732 208.563879 C 145.244936 197.884537 148.687038 187.651393 151.682941 177.869351 C 152.98231 173.677047 154.227743 169.406291 155.424143 165.066889 C 156.625447 160.722583 157.674748 156.53028 158.572049 152.489977 C 159.469349 148.444772 160.165614 144.649634 160.665749 141.109466 C 161.165883 137.564395 161.366918 134.494943 161.263949 131.901108 C 160.067549 131.700073 158.920181 131.597105 157.821847 131.597105 C 156.723512 131.597105 155.527112 131.597105 154.227743 131.597105 C 151.432874 131.597105 148.662521 131.675557 145.916685 131.822655 C 143.170848 131.974657 140.650563 132.200208 138.355828 132.499308 C 143.048266 128.307004 147.24057 125.110066 150.932739 122.913397 C 154.629812 120.716728 157.772814 119.069226 160.366649 117.975795 C 163.362552 116.774491 166.00542 116.078226 168.305058 115.877191 C 170.099658 115.877191 172.423812 115.852675 175.267714 115.803642 C 178.111616 115.754609 181.156553 115.676157 184.402524 115.578091 C 187.643591 115.480026 190.938595 115.35254 194.282631 115.205442 C 197.626668 115.05344 200.720637 114.901439 203.564539 114.75434 C 206.413344 114.602339 208.855177 114.45524 210.904748 114.303239 C 212.949416 114.15614 214.322334 113.979622 215.023503 113.778588 C 212.228633 115.779126 209.154277 117.872826 205.810241 120.069495 C 202.466204 122.266164 199.20062 124.261799 196.003682 126.061302 C 200.696121 142.232317 205.290493 157.927714 209.781897 173.152396 C 214.273301 188.372175 218.86277 203.248724 223.555209 217.772237 C 228.247647 232.295751 233.116603 246.520164 238.157174 260.445477 C 243.197745 274.37079 248.561933 288.075455 254.25464 301.549667 C 256.848475 295.861863 259.393277 290.07109 261.889046 284.182252 C 264.384815 278.293413 266.831551 272.502641 269.224352 266.809933 C 271.622055 261.122129 273.892273 255.60594 276.03991 250.266269 C 278.187546 244.926598 280.207697 239.910543 282.105266 235.218105 C 286.493701 224.136694 290.587939 213.506385 294.383077 203.322273 C 297.374078 194.736632 300.119914 186.352024 302.615683 178.168451 C 303.615952 174.672413 304.640738 171.078309 305.685136 167.38614 C 306.734438 163.693971 307.631738 160.026318 308.38194 156.378278 C 309.132141 152.735141 309.754858 149.244007 310.254992 145.89997 C 310.755127 142.555934 311.000291 139.535514 311.000291 136.83871 C 311.000291 135.843344 311.000291 134.970561 311.000291 134.220359 C 311.000291 133.470157 310.902225 132.695439 310.701191 131.901108 C 308.808525 131.901108 306.886439 131.847172 304.939838 131.749106 C 302.993236 131.651041 301.120183 131.597105 299.32068 131.597105 C 296.52581 131.597105 293.730941 131.675557 290.936072 131.822655 C 288.141203 131.974657 285.596401 132.200208 283.301666 132.499308 C 287.891136 128.307004 292.034407 125.110066 295.731479 122.913397 C 299.423648 120.716728 302.56665 119.069226 305.160485 117.975795 C 308.156389 116.774491 310.80416 116.078226 313.098894 115.877191 C 314.996463 115.877191 317.389264 115.852675 320.287102 115.803642 C 323.180036 115.754609 326.249489 115.676157 329.49546 115.578091 C 332.741431 115.480026 336.031531 115.35254 339.375568 115.205442 C 342.719604 115.05344 345.818477 114.901439 348.662379 114.75434 C 351.506281 114.602339 353.928501 114.45524 355.924135 114.303239 C 357.91977 114.15614 359.268172 113.979622 359.964437 113.778588 C 357.767768 115.278991 355.374968 116.87746 352.781133 118.573995 C 350.182395 120.270529 347.564044 121.918031 344.916273 123.511597 C 342.273406 125.110066 339.650151 126.58105 337.056317 127.929452 C 334.462482 129.277853 332.015746 130.400704 329.721011 131.298005 C 320.537169 163.041834 309.87744 193.613781 297.75163 223.013843 C 285.620917 252.413905 272.318321 281.436415 257.84384 310.086276 C 257.84384 310.483442 258.044875 310.885511 258.446944 311.282676 Z M 258.446944 311.282676 " stroke="#ffffff" stroke-width="23.000025" stroke-opacity="1" stroke-miterlimit="4"/><g fill="#ccf381" fill-opacity="1"><g transform="translate(37.500002, 266.368388)"><g><path d="M 205.890625 -14.90625 L 189.546875 4.40625 C 179.609375 -20.320312 170.363281 -44.929688 161.8125 -69.421875 C 153.257812 -93.921875 145.722656 -118.570312 139.203125 -143.375 C 134.429688 -130.09375 129.640625 -116.890625 124.828125 -103.765625 C 120.015625 -90.648438 114.863281 -77.789062 109.375 -65.1875 C 103.894531 -52.582031 97.910156 -40.332031 91.421875 -28.4375 C 84.941406 -16.550781 77.6875 -5.203125 69.65625 5.609375 C 64.96875 -8.234375 60.515625 -22.050781 56.296875 -35.84375 C 52.085938 -49.644531 47.914062 -63.382812 43.78125 -77.0625 C 39.644531 -90.738281 35.410156 -104.296875 31.078125 -117.734375 C 26.742188 -131.171875 22.070312 -144.53125 17.0625 -157.8125 C 15.945312 -157.96875 14.890625 -158.046875 13.890625 -158.046875 C 12.898438 -158.046875 11.847656 -158.046875 10.734375 -158.046875 C 8.503906 -158.046875 6.296875 -157.988281 4.109375 -157.875 C 1.921875 -157.757812 -0.0820312 -157.582031 -1.90625 -157.34375 C 1.832031 -160.675781 5.148438 -163.21875 8.046875 -164.96875 C 10.953125 -166.71875 13.4375 -168.03125 15.5 -168.90625 C 17.882812 -169.863281 19.953125 -170.421875 21.703125 -170.578125 C 23.210938 -170.578125 25.117188 -170.597656 27.421875 -170.640625 C 29.734375 -170.679688 32.179688 -170.738281 34.765625 -170.8125 C 37.359375 -170.894531 39.984375 -170.992188 42.640625 -171.109375 C 45.304688 -171.234375 47.769531 -171.351562 50.03125 -171.46875 C 52.300781 -171.59375 54.25 -171.710938 55.875 -171.828125 C 57.507812 -171.953125 58.609375 -172.09375 59.171875 -172.25 C 56.140625 -170.257812 52.894531 -168.109375 49.4375 -165.796875 C 45.976562 -163.492188 42.539062 -161.550781 39.125 -159.96875 L 80.640625 -24.6875 C 82.546875 -28.113281 84.453125 -31.773438 86.359375 -35.671875 C 88.265625 -39.566406 90.148438 -43.539062 92.015625 -47.59375 C 93.890625 -51.644531 95.703125 -55.660156 97.453125 -59.640625 C 99.203125 -63.617188 100.832031 -67.4375 102.34375 -71.09375 C 105.925781 -79.601562 109.347656 -88.148438 112.609375 -96.734375 C 115.703125 -105.242188 118.445312 -113.394531 120.84375 -121.1875 C 121.875 -124.53125 122.863281 -127.929688 123.8125 -131.390625 C 124.769531 -134.847656 125.601562 -138.1875 126.3125 -141.40625 C 127.03125 -144.632812 127.585938 -147.660156 127.984375 -150.484375 C 128.390625 -153.304688 128.550781 -155.75 128.46875 -157.8125 C 127.519531 -157.96875 126.609375 -158.046875 125.734375 -158.046875 C 124.859375 -158.046875 123.898438 -158.046875 122.859375 -158.046875 C 120.640625 -158.046875 118.4375 -157.988281 116.25 -157.875 C 114.0625 -157.757812 112.050781 -157.582031 110.21875 -157.34375 C 113.957031 -160.675781 117.296875 -163.21875 120.234375 -164.96875 C 123.179688 -166.71875 125.6875 -168.03125 127.75 -168.90625 C 130.132812 -169.863281 132.242188 -170.421875 134.078125 -170.578125 C 135.503906 -170.578125 137.347656 -170.597656 139.609375 -170.640625 C 141.878906 -170.679688 144.304688 -170.738281 146.890625 -170.8125 C 149.484375 -170.894531 152.109375 -170.992188 154.765625 -171.109375 C 157.429688 -171.234375 159.894531 -171.351562 162.15625 -171.46875 C 164.425781 -171.59375 166.375 -171.710938 168 -171.828125 C 169.632812 -171.953125 170.734375 -172.09375 171.296875 -172.25 C 169.066406 -170.65625 166.617188 -168.984375 163.953125 -167.234375 C 161.296875 -165.484375 158.691406 -163.894531 156.140625 -162.46875 C 159.878906 -149.582031 163.535156 -137.078125 167.109375 -124.953125 C 170.691406 -112.828125 174.351562 -100.976562 178.09375 -89.40625 C 181.832031 -77.832031 185.707031 -66.5 189.71875 -55.40625 C 193.738281 -44.3125 198.015625 -33.398438 202.546875 -22.671875 C 204.609375 -27.203125 206.632812 -31.8125 208.625 -36.5 C 210.613281 -41.195312 212.5625 -45.8125 214.46875 -50.34375 C 216.382812 -54.875 218.195312 -59.265625 219.90625 -63.515625 C 221.613281 -67.773438 223.222656 -71.769531 224.734375 -75.5 C 228.234375 -84.332031 231.492188 -92.804688 234.515625 -100.921875 C 236.898438 -107.753906 239.085938 -114.429688 241.078125 -120.953125 C 241.867188 -123.734375 242.679688 -126.59375 243.515625 -129.53125 C 244.359375 -132.476562 245.078125 -135.40625 245.671875 -138.3125 C 246.265625 -141.21875 246.757812 -144 247.15625 -146.65625 C 247.550781 -149.320312 247.75 -151.726562 247.75 -153.875 C 247.75 -154.675781 247.75 -155.375 247.75 -155.96875 C 247.75 -156.5625 247.671875 -157.175781 247.515625 -157.8125 C 246.003906 -157.8125 244.472656 -157.847656 242.921875 -157.921875 C 241.367188 -158.003906 239.878906 -158.046875 238.453125 -158.046875 C 236.222656 -158.046875 233.992188 -157.988281 231.765625 -157.875 C 229.546875 -157.757812 227.519531 -157.582031 225.6875 -157.34375 C 229.34375 -160.675781 232.640625 -163.21875 235.578125 -164.96875 C 238.523438 -166.71875 241.035156 -168.03125 243.109375 -168.90625 C 245.492188 -169.863281 247.597656 -170.421875 249.421875 -170.578125 C 250.929688 -170.578125 252.835938 -170.597656 255.140625 -170.640625 C 257.453125 -170.679688 259.898438 -170.738281 262.484375 -170.8125 C 265.066406 -170.894531 267.691406 -170.992188 270.359375 -171.109375 C 273.023438 -171.234375 275.488281 -171.351562 277.75 -171.46875 C 280.019531 -171.59375 281.945312 -171.710938 283.53125 -171.828125 C 285.125 -171.953125 286.203125 -172.09375 286.765625 -172.25 C 285.015625 -171.050781 283.101562 -169.773438 281.03125 -168.421875 C 278.96875 -167.078125 276.878906 -165.769531 274.765625 -164.5 C 272.660156 -163.226562 270.570312 -162.050781 268.5 -160.96875 C 266.4375 -159.894531 264.492188 -159.003906 262.671875 -158.296875 C 255.347656 -133.003906 246.851562 -108.644531 237.1875 -85.21875 C 227.53125 -61.800781 216.9375 -38.679688 205.40625 -15.859375 C 205.40625 -15.546875 205.566406 -15.226562 205.890625 -14.90625 Z M 205.890625 -14.90625 "/></g></g></g><path stroke-linecap="butt" transform="matrix(0.638842, 0, 0, 0.638842, 152.747061, 83.706609)" fill="none" stroke-linejoin="miter" d="M 197.499249 124.261048 C 195.707678 126.560128 193.506431 128.804177 190.913852 130.999309 C 188.718719 132.894827 185.997734 134.894293 182.750895 136.991593 C 179.51017 139.088892 175.743592 140.98441 171.445046 142.678147 C 172.845284 140.880462 172.967575 138.960486 171.82415 136.912103 C 170.67461 134.869835 168.155405 132.998775 164.260421 131.298923 C 160.365437 129.605186 155.100788 128.204949 148.466474 127.104325 C 141.826046 126.009816 133.712006 125.459505 124.130467 125.459505 C 118.541746 125.459505 112.525004 126.034275 106.086357 127.183815 C 99.64771 128.32724 93.288552 130.302248 86.996655 133.096608 C 80.710872 135.890969 74.645214 139.60863 68.805795 144.249593 C 62.966376 148.896669 57.799561 154.681057 53.305348 161.621099 C 48.811136 168.561142 45.246339 176.797474 42.598728 186.330096 C 39.957232 195.862718 38.630369 206.868952 38.630369 219.342684 C 38.630369 231.822531 40.152898 242.804308 43.197956 252.288013 C 46.243015 261.771718 50.284748 269.928561 55.329273 276.77077 C 60.367682 283.606865 66.133726 289.299534 72.62129 293.836548 C 79.108854 298.379677 85.749282 302.023963 92.53646 304.769408 C 99.323637 307.514852 105.988524 309.434828 112.525004 310.535451 C 119.067599 311.62996 124.980393 312.180272 130.2695 312.180272 C 136.359616 312.082439 142.70043 311.62996 149.285827 310.835066 C 154.978496 310.138004 161.239821 309.110756 168.08203 307.765549 C 174.918124 306.414228 181.631927 304.445335 188.217324 301.846641 C 178.537953 309.636609 169.549528 315.573861 161.264279 319.670626 C 152.97903 323.761277 145.690457 326.806335 139.404675 328.799686 C 132.116102 331.098766 125.426757 332.395056 119.342755 332.69467 C 104.563828 332.69467 90.640941 330.523996 77.561866 326.182648 C 64.488905 321.8413 53.030192 315.549403 43.197956 307.313071 C 33.36572 299.076738 25.606325 288.969347 19.913656 276.990895 C 14.227101 265.012443 11.37771 251.38917 11.37771 236.114963 C 11.37771 226.631258 12.276552 217.820155 14.074237 209.687771 C 15.871922 201.549272 18.244377 194.089491 21.185487 187.302313 C 24.132712 180.515135 27.452927 174.40056 31.14613 168.958589 C 34.839333 163.516618 38.605911 158.728906 42.451978 154.583224 C 46.291931 150.443657 50.034051 146.970578 53.678337 144.176218 C 57.322624 141.381857 60.496088 139.235641 63.186501 137.737571 C 65.785195 136.2395 69.105409 134.545763 73.147143 132.650244 C 77.188877 130.748612 81.634173 128.828635 86.470801 126.884201 C 91.313545 124.933651 96.431444 123.013675 101.818384 121.118157 C 107.211439 119.222638 112.702327 117.522787 118.291048 116.024716 C 123.879769 114.526645 129.346199 113.334303 134.690337 112.435461 C 140.028361 111.536618 145.097344 111.08414 149.885056 111.08414 C 160.567218 111.08414 169.200997 111.585535 175.792509 112.58221 C 182.377905 113.578886 187.397971 114.801801 190.840477 116.250955 C 194.282982 117.700109 196.429198 119.173722 197.279124 120.665678 C 198.12905 122.163749 198.202425 123.362206 197.499249 124.261048 Z M 197.499249 124.261048 " stroke="#ffffff" stroke-width="23.000025" stroke-opacity="1" stroke-miterlimit="4"/><g fill="#ccf381" fill-opacity="1"><g transform="translate(152.747061, 294.524624)"><g><path d="M 126.171875 -131.4375 C 125.023438 -129.96875 123.625 -128.53125 121.96875 -127.125 C 120.5625 -125.914062 118.820312 -124.640625 116.75 -123.296875 C 114.675781 -121.960938 112.269531 -120.753906 109.53125 -119.671875 C 110.414062 -120.816406 110.492188 -122.039062 109.765625 -123.34375 C 109.035156 -124.65625 107.425781 -125.851562 104.9375 -126.9375 C 102.445312 -128.019531 99.082031 -128.910156 94.84375 -129.609375 C 90.601562 -130.316406 85.421875 -130.671875 79.296875 -130.671875 C 75.722656 -130.671875 71.878906 -130.300781 67.765625 -129.5625 C 63.660156 -128.832031 59.597656 -127.570312 55.578125 -125.78125 C 51.554688 -124 47.679688 -121.625 43.953125 -118.65625 C 40.222656 -115.695312 36.921875 -112 34.046875 -107.5625 C 31.179688 -103.132812 28.898438 -97.875 27.203125 -91.78125 C 25.515625 -85.6875 24.671875 -78.65625 24.671875 -70.6875 C 24.671875 -62.71875 25.644531 -55.703125 27.59375 -49.640625 C 29.539062 -43.585938 32.125 -38.375 35.34375 -34 C 38.5625 -29.632812 42.242188 -26 46.390625 -23.09375 C 50.535156 -20.195312 54.773438 -17.867188 59.109375 -16.109375 C 63.453125 -14.359375 67.710938 -13.132812 71.890625 -12.4375 C 76.066406 -11.738281 79.84375 -11.390625 83.21875 -11.390625 C 87.113281 -11.453125 91.164062 -11.738281 95.375 -12.25 C 99.007812 -12.6875 103.007812 -13.335938 107.375 -14.203125 C 111.738281 -15.066406 116.023438 -16.328125 120.234375 -17.984375 C 114.054688 -13.003906 108.316406 -9.207031 103.015625 -6.59375 C 97.722656 -3.976562 93.070312 -2.035156 89.0625 -0.765625 C 84.40625 0.703125 80.128906 1.53125 76.234375 1.71875 C 66.796875 1.71875 57.898438 0.332031 49.546875 -2.4375 C 41.191406 -5.207031 33.875 -9.222656 27.59375 -14.484375 C 21.3125 -19.753906 16.351562 -26.210938 12.71875 -33.859375 C 9.082031 -41.515625 7.265625 -50.222656 7.265625 -59.984375 C 7.265625 -66.035156 7.835938 -71.660156 8.984375 -76.859375 C 10.140625 -82.054688 11.65625 -86.820312 13.53125 -91.15625 C 15.414062 -95.5 17.535156 -99.40625 19.890625 -102.875 C 22.253906 -106.351562 24.660156 -109.414062 27.109375 -112.0625 C 29.566406 -114.707031 31.957031 -116.921875 34.28125 -118.703125 C 36.613281 -120.492188 38.644531 -121.867188 40.375 -122.828125 C 42.03125 -123.785156 44.148438 -124.867188 46.734375 -126.078125 C 49.316406 -127.285156 52.148438 -128.507812 55.234375 -129.75 C 58.328125 -131 61.597656 -132.226562 65.046875 -133.4375 C 68.492188 -134.65625 72 -135.738281 75.5625 -136.6875 C 79.132812 -137.644531 82.625 -138.410156 86.03125 -138.984375 C 89.445312 -139.554688 92.6875 -139.84375 95.75 -139.84375 C 102.570312 -139.84375 108.085938 -139.523438 112.296875 -138.890625 C 116.503906 -138.253906 119.707031 -137.472656 121.90625 -136.546875 C 124.113281 -135.617188 125.488281 -134.675781 126.03125 -133.71875 C 126.570312 -132.769531 126.617188 -132.007812 126.171875 -131.4375 Z M 126.171875 -131.4375 "/></g></g></g><g clip-path="url(#a68398325f)"><g clip-path="url(#5277c77c2f)"><path fill="#ffffff" d="M 63.976562 206.894531 L 305.605469 206.894531 L 305.605469 234.582031 L 63.976562 234.582031 Z M 63.976562 206.894531 " fill-opacity="1" fill-rule="nonzero"/></g></g><g fill="#ccf381" fill-opacity="1"><g transform="translate(76.769219, 227.709646)"><g><path d="M 18.421875 -1.328125 L 16.953125 0.390625 C 16.066406 -1.816406 15.238281 -4.015625 14.46875 -6.203125 C 13.707031 -8.398438 13.035156 -10.609375 12.453125 -12.828125 C 12.023438 -11.640625 11.597656 -10.457031 11.171875 -9.28125 C 10.742188 -8.113281 10.28125 -6.960938 9.78125 -5.828125 C 9.289062 -4.703125 8.753906 -3.609375 8.171875 -2.546875 C 7.597656 -1.484375 6.953125 -0.46875 6.234375 0.5 C 5.816406 -0.738281 5.414062 -1.972656 5.03125 -3.203125 C 4.65625 -4.441406 4.28125 -5.671875 3.90625 -6.890625 C 3.539062 -8.117188 3.164062 -9.332031 2.78125 -10.53125 C 2.394531 -11.738281 1.976562 -12.9375 1.53125 -14.125 C 1.425781 -14.132812 1.328125 -14.140625 1.234375 -14.140625 C 1.148438 -14.140625 1.054688 -14.140625 0.953125 -14.140625 C 0.753906 -14.140625 0.554688 -14.132812 0.359375 -14.125 C 0.171875 -14.113281 -0.00390625 -14.097656 -0.171875 -14.078125 C 0.160156 -14.378906 0.457031 -14.609375 0.71875 -14.765625 C 0.976562 -14.921875 1.203125 -15.035156 1.390625 -15.109375 C 1.597656 -15.191406 1.78125 -15.242188 1.9375 -15.265625 C 2.070312 -15.265625 2.242188 -15.265625 2.453125 -15.265625 C 2.660156 -15.273438 2.878906 -15.28125 3.109375 -15.28125 C 3.335938 -15.289062 3.570312 -15.300781 3.8125 -15.3125 C 4.050781 -15.320312 4.269531 -15.332031 4.46875 -15.34375 C 4.675781 -15.351562 4.851562 -15.363281 5 -15.375 C 5.144531 -15.382812 5.242188 -15.394531 5.296875 -15.40625 C 5.023438 -15.226562 4.734375 -15.035156 4.421875 -14.828125 C 4.109375 -14.628906 3.800781 -14.457031 3.5 -14.3125 L 7.21875 -2.203125 C 7.382812 -2.515625 7.550781 -2.84375 7.71875 -3.1875 C 7.894531 -3.539062 8.066406 -3.894531 8.234375 -4.25 C 8.398438 -4.613281 8.5625 -4.972656 8.71875 -5.328125 C 8.875 -5.691406 9.019531 -6.035156 9.15625 -6.359375 C 9.476562 -7.117188 9.785156 -7.882812 10.078125 -8.65625 C 10.347656 -9.414062 10.59375 -10.144531 10.8125 -10.84375 C 10.90625 -11.144531 10.992188 -11.445312 11.078125 -11.75 C 11.160156 -12.0625 11.234375 -12.359375 11.296875 -12.640625 C 11.367188 -12.929688 11.421875 -13.203125 11.453125 -13.453125 C 11.484375 -13.710938 11.5 -13.9375 11.5 -14.125 C 11.414062 -14.132812 11.332031 -14.140625 11.25 -14.140625 C 11.164062 -14.140625 11.082031 -14.140625 11 -14.140625 C 10.789062 -14.140625 10.585938 -14.132812 10.390625 -14.125 C 10.203125 -14.113281 10.023438 -14.097656 9.859375 -14.078125 C 10.191406 -14.378906 10.488281 -14.609375 10.75 -14.765625 C 11.019531 -14.921875 11.25 -15.035156 11.4375 -15.109375 C 11.644531 -15.191406 11.832031 -15.242188 12 -15.265625 C 12.125 -15.265625 12.285156 -15.265625 12.484375 -15.265625 C 12.691406 -15.273438 12.910156 -15.28125 13.140625 -15.28125 C 13.367188 -15.289062 13.601562 -15.300781 13.84375 -15.3125 C 14.082031 -15.320312 14.300781 -15.332031 14.5 -15.34375 C 14.707031 -15.351562 14.882812 -15.363281 15.03125 -15.375 C 15.175781 -15.382812 15.273438 -15.394531 15.328125 -15.40625 C 15.128906 -15.269531 14.910156 -15.125 14.671875 -14.96875 C 14.429688 -14.8125 14.195312 -14.664062 13.96875 -14.53125 C 14.300781 -13.382812 14.628906 -12.265625 14.953125 -11.171875 C 15.273438 -10.085938 15.601562 -9.03125 15.9375 -8 C 16.269531 -6.96875 16.613281 -5.953125 16.96875 -4.953125 C 17.332031 -3.960938 17.71875 -2.988281 18.125 -2.03125 C 18.3125 -2.4375 18.492188 -2.847656 18.671875 -3.265625 C 18.847656 -3.679688 19.019531 -4.09375 19.1875 -4.5 C 19.363281 -4.90625 19.523438 -5.296875 19.671875 -5.671875 C 19.828125 -6.054688 19.972656 -6.414062 20.109375 -6.75 C 20.421875 -7.539062 20.710938 -8.300781 20.984375 -9.03125 C 21.191406 -9.644531 21.390625 -10.242188 21.578125 -10.828125 C 21.640625 -11.078125 21.707031 -11.332031 21.78125 -11.59375 C 21.863281 -11.851562 21.929688 -12.113281 21.984375 -12.375 C 22.035156 -12.632812 22.078125 -12.882812 22.109375 -13.125 C 22.148438 -13.363281 22.171875 -13.578125 22.171875 -13.765625 C 22.171875 -13.835938 22.171875 -13.898438 22.171875 -13.953125 C 22.171875 -14.003906 22.160156 -14.0625 22.140625 -14.125 C 22.003906 -14.125 21.867188 -14.125 21.734375 -14.125 C 21.597656 -14.132812 21.46875 -14.140625 21.34375 -14.140625 C 21.132812 -14.140625 20.929688 -14.132812 20.734375 -14.125 C 20.535156 -14.113281 20.351562 -14.097656 20.1875 -14.078125 C 20.519531 -14.378906 20.816406 -14.609375 21.078125 -14.765625 C 21.335938 -14.921875 21.5625 -15.035156 21.75 -15.109375 C 21.96875 -15.191406 22.15625 -15.242188 22.3125 -15.265625 C 22.445312 -15.265625 22.617188 -15.265625 22.828125 -15.265625 C 23.035156 -15.273438 23.253906 -15.28125 23.484375 -15.28125 C 23.710938 -15.289062 23.945312 -15.300781 24.1875 -15.3125 C 24.425781 -15.320312 24.644531 -15.332031 24.84375 -15.34375 C 25.050781 -15.351562 25.222656 -15.363281 25.359375 -15.375 C 25.503906 -15.382812 25.601562 -15.394531 25.65625 -15.40625 C 25.5 -15.300781 25.328125 -15.1875 25.140625 -15.0625 C 24.960938 -14.945312 24.773438 -14.832031 24.578125 -14.71875 C 24.390625 -14.601562 24.203125 -14.5 24.015625 -14.40625 C 23.835938 -14.3125 23.664062 -14.226562 23.5 -14.15625 C 22.84375 -11.894531 22.082031 -9.71875 21.21875 -7.625 C 20.351562 -5.53125 19.40625 -3.460938 18.375 -1.421875 C 18.375 -1.390625 18.390625 -1.359375 18.421875 -1.328125 Z M 18.421875 -1.328125 "/></g></g></g><g fill="#ccf381" fill-opacity="1"><g transform="translate(103.132197, 227.709646)"><g><path d="M 4.265625 -1.109375 C 3.878906 -0.898438 3.515625 -0.722656 3.171875 -0.578125 C 2.828125 -0.429688 2.503906 -0.316406 2.203125 -0.234375 C 1.910156 -0.148438 1.644531 -0.0859375 1.40625 -0.046875 C 1.164062 -0.015625 0.960938 0 0.796875 0 L -0.8125 0 L 0.359375 -0.65625 C 0.472656 -0.8125 0.585938 -0.96875 0.703125 -1.125 C 0.816406 -1.28125 0.914062 -1.425781 1 -1.5625 C 1.082031 -1.707031 1.164062 -1.851562 1.25 -2 C 1.46875 -2.445312 1.796875 -3.175781 2.234375 -4.1875 C 2.410156 -4.613281 2.617188 -5.117188 2.859375 -5.703125 C 3.109375 -6.296875 3.390625 -6.984375 3.703125 -7.765625 C 4.023438 -8.546875 4.382812 -9.4375 4.78125 -10.4375 C 5.175781 -11.4375 5.613281 -12.554688 6.09375 -13.796875 L 7.953125 -15.5 L 12.140625 -1.3125 C 12.429688 -1.238281 12.710938 -1.1875 12.984375 -1.15625 C 13.265625 -1.132812 13.523438 -1.125 13.765625 -1.125 C 13.898438 -1.125 14.019531 -1.125 14.125 -1.125 C 14.226562 -1.132812 14.320312 -1.144531 14.40625 -1.15625 C 14.488281 -1.15625 14.566406 -1.164062 14.640625 -1.1875 C 14.234375 -0.988281 13.875 -0.816406 13.5625 -0.671875 C 13.257812 -0.523438 12.988281 -0.398438 12.75 -0.296875 C 12.507812 -0.203125 12.285156 -0.128906 12.078125 -0.078125 C 11.878906 -0.0234375 11.675781 0 11.46875 0 L 9.765625 0 L 10.328125 -0.359375 L 8.609375 -6.015625 C 8.398438 -5.953125 8.160156 -5.894531 7.890625 -5.84375 C 7.628906 -5.789062 7.3125 -5.742188 6.9375 -5.703125 C 6.5625 -5.660156 6.125 -5.617188 5.625 -5.578125 C 5.132812 -5.546875 4.566406 -5.515625 3.921875 -5.484375 C 3.617188 -4.847656 3.34375 -4.285156 3.09375 -3.796875 C 2.84375 -3.304688 2.617188 -2.878906 2.421875 -2.515625 C 2.222656 -2.148438 2.046875 -1.84375 1.890625 -1.59375 C 1.742188 -1.351562 1.613281 -1.15625 1.5 -1 C 1.625 -0.976562 1.757812 -0.960938 1.90625 -0.953125 C 2.0625 -0.941406 2.210938 -0.9375 2.359375 -0.9375 C 2.585938 -0.9375 2.8125 -0.945312 3.03125 -0.96875 C 3.257812 -0.988281 3.46875 -1.007812 3.65625 -1.03125 C 3.863281 -1.050781 4.066406 -1.078125 4.265625 -1.109375 Z M 5.75 -6.75 C 6.707031 -6.75 7.582031 -6.773438 8.375 -6.828125 L 6.734375 -12.25 C 6.296875 -11.113281 5.890625 -10.097656 5.515625 -9.203125 C 5.148438 -8.316406 4.804688 -7.5 4.484375 -6.75 Z M 5.75 -6.75 "/></g></g></g><g fill="#ccf381" fill-opacity="1"><g transform="translate(118.7455, 227.709646)"><g><path d="M 6.171875 -15.8125 C 5.835938 -15.59375 5.535156 -15.40625 5.265625 -15.25 C 4.992188 -15.09375 4.738281 -14.96875 4.5 -14.875 C 4.46875 -13.582031 4.4375 -12.425781 4.40625 -11.40625 C 4.382812 -10.394531 4.363281 -9.492188 4.34375 -8.703125 C 4.332031 -7.921875 4.320312 -7.242188 4.3125 -6.671875 C 4.300781 -6.097656 4.289062 -5.609375 4.28125 -5.203125 C 4.257812 -4.253906 4.253906 -3.601562 4.265625 -3.25 C 4.253906 -2.988281 4.222656 -2.738281 4.171875 -2.5 C 4.128906 -2.289062 4.0625 -2.070312 3.96875 -1.84375 C 3.875 -1.613281 3.75 -1.414062 3.59375 -1.25 C 4.019531 -1.238281 4.414062 -1.234375 4.78125 -1.234375 C 5.15625 -1.234375 5.515625 -1.234375 5.859375 -1.234375 C 6.835938 -1.234375 7.640625 -1.242188 8.265625 -1.265625 C 8.898438 -1.296875 9.40625 -1.332031 9.78125 -1.375 C 10.164062 -1.414062 10.4375 -1.453125 10.59375 -1.484375 C 10.75 -1.515625 10.835938 -1.535156 10.859375 -1.546875 C 10.484375 -1.285156 10.171875 -1.0625 9.921875 -0.875 C 9.671875 -0.695312 9.445312 -0.546875 9.25 -0.421875 C 9.0625 -0.304688 8.875 -0.21875 8.6875 -0.15625 C 8.5 -0.101562 8.28125 -0.078125 8.03125 -0.078125 L 6.375 -0.078125 C 5.914062 -0.078125 5.414062 -0.078125 4.875 -0.078125 C 4.332031 -0.078125 3.816406 -0.0703125 3.328125 -0.0625 C 2.835938 -0.0507812 2.398438 -0.03125 2.015625 0 C 1.628906 0.0195312 1.351562 0.046875 1.1875 0.078125 C 1.382812 -0.0859375 1.5625 -0.269531 1.71875 -0.46875 C 1.882812 -0.664062 2.023438 -0.910156 2.140625 -1.203125 C 2.265625 -1.492188 2.359375 -1.84375 2.421875 -2.25 C 2.484375 -2.664062 2.515625 -3.160156 2.515625 -3.734375 L 2.515625 -14.515625 C 2.296875 -14.492188 2.03125 -14.460938 1.71875 -14.421875 C 1.40625 -14.390625 1.050781 -14.347656 0.65625 -14.296875 C 1.039062 -14.609375 1.382812 -14.84375 1.6875 -15 C 2 -15.164062 2.265625 -15.289062 2.484375 -15.375 C 2.742188 -15.457031 2.972656 -15.503906 3.171875 -15.515625 C 3.421875 -15.515625 3.695312 -15.519531 4 -15.53125 C 4.300781 -15.539062 4.59375 -15.554688 4.875 -15.578125 C 5.15625 -15.609375 5.410156 -15.644531 5.640625 -15.6875 C 5.878906 -15.726562 6.054688 -15.769531 6.171875 -15.8125 Z M 10.859375 -1.546875 L 10.859375 -1.5625 C 10.867188 -1.5625 10.878906 -1.5625 10.890625 -1.5625 Z M 10.859375 -1.546875 "/></g></g></g><g fill="#ccf381" fill-opacity="1"><g transform="translate(130.77202, 227.709646)"><g><path d="M 6.171875 -15.8125 C 5.835938 -15.59375 5.535156 -15.40625 5.265625 -15.25 C 4.992188 -15.09375 4.738281 -14.96875 4.5 -14.875 C 4.46875 -13.582031 4.4375 -12.425781 4.40625 -11.40625 C 4.382812 -10.394531 4.363281 -9.492188 4.34375 -8.703125 C 4.332031 -7.921875 4.320312 -7.242188 4.3125 -6.671875 C 4.300781 -6.097656 4.289062 -5.609375 4.28125 -5.203125 C 4.257812 -4.253906 4.253906 -3.601562 4.265625 -3.25 C 4.253906 -2.988281 4.222656 -2.738281 4.171875 -2.5 C 4.128906 -2.289062 4.0625 -2.070312 3.96875 -1.84375 C 3.875 -1.613281 3.75 -1.414062 3.59375 -1.25 C 4.019531 -1.238281 4.414062 -1.234375 4.78125 -1.234375 C 5.15625 -1.234375 5.515625 -1.234375 5.859375 -1.234375 C 6.835938 -1.234375 7.640625 -1.242188 8.265625 -1.265625 C 8.898438 -1.296875 9.40625 -1.332031 9.78125 -1.375 C 10.164062 -1.414062 10.4375 -1.453125 10.59375 -1.484375 C 10.75 -1.515625 10.835938 -1.535156 10.859375 -1.546875 C 10.484375 -1.285156 10.171875 -1.0625 9.921875 -0.875 C 9.671875 -0.695312 9.445312 -0.546875 9.25 -0.421875 C 9.0625 -0.304688 8.875 -0.21875 8.6875 -0.15625 C 8.5 -0.101562 8.28125 -0.078125 8.03125 -0.078125 L 6.375 -0.078125 C 5.914062 -0.078125 5.414062 -0.078125 4.875 -0.078125 C 4.332031 -0.078125 3.816406 -0.0703125 3.328125 -0.0625 C 2.835938 -0.0507812 2.398438 -0.03125 2.015625 0 C 1.628906 0.0195312 1.351562 0.046875 1.1875 0.078125 C 1.382812 -0.0859375 1.5625 -0.269531 1.71875 -0.46875 C 1.882812 -0.664062 2.023438 -0.910156 2.140625 -1.203125 C 2.265625 -1.492188 2.359375 -1.84375 2.421875 -2.25 C 2.484375 -2.664062 2.515625 -3.160156 2.515625 -3.734375 L 2.515625 -14.515625 C 2.296875 -14.492188 2.03125 -14.460938 1.71875 -14.421875 C 1.40625 -14.390625 1.050781 -14.347656 0.65625 -14.296875 C 1.039062 -14.609375 1.382812 -14.84375 1.6875 -15 C 2 -15.164062 2.265625 -15.289062 2.484375 -15.375 C 2.742188 -15.457031 2.972656 -15.503906 3.171875 -15.515625 C 3.421875 -15.515625 3.695312 -15.519531 4 -15.53125 C 4.300781 -15.539062 4.59375 -15.554688 4.875 -15.578125 C 5.15625 -15.609375 5.410156 -15.644531 5.640625 -15.6875 C 5.878906 -15.726562 6.054688 -15.769531 6.171875 -15.8125 Z M 10.859375 -1.546875 L 10.859375 -1.5625 C 10.867188 -1.5625 10.878906 -1.5625 10.890625 -1.5625 Z M 10.859375 -1.546875 "/></g></g></g><g fill="#ccf381" fill-opacity="1"><g transform="translate(142.79854, 227.709646)"><g><path d="M 4.265625 -1.109375 C 3.878906 -0.898438 3.515625 -0.722656 3.171875 -0.578125 C 2.828125 -0.429688 2.503906 -0.316406 2.203125 -0.234375 C 1.910156 -0.148438 1.644531 -0.0859375 1.40625 -0.046875 C 1.164062 -0.015625 0.960938 0 0.796875 0 L -0.8125 0 L 0.359375 -0.65625 C 0.472656 -0.8125 0.585938 -0.96875 0.703125 -1.125 C 0.816406 -1.28125 0.914062 -1.425781 1 -1.5625 C 1.082031 -1.707031 1.164062 -1.851562 1.25 -2 C 1.46875 -2.445312 1.796875 -3.175781 2.234375 -4.1875 C 2.410156 -4.613281 2.617188 -5.117188 2.859375 -5.703125 C 3.109375 -6.296875 3.390625 -6.984375 3.703125 -7.765625 C 4.023438 -8.546875 4.382812 -9.4375 4.78125 -10.4375 C 5.175781 -11.4375 5.613281 -12.554688 6.09375 -13.796875 L 7.953125 -15.5 L 12.140625 -1.3125 C 12.429688 -1.238281 12.710938 -1.1875 12.984375 -1.15625 C 13.265625 -1.132812 13.523438 -1.125 13.765625 -1.125 C 13.898438 -1.125 14.019531 -1.125 14.125 -1.125 C 14.226562 -1.132812 14.320312 -1.144531 14.40625 -1.15625 C 14.488281 -1.15625 14.566406 -1.164062 14.640625 -1.1875 C 14.234375 -0.988281 13.875 -0.816406 13.5625 -0.671875 C 13.257812 -0.523438 12.988281 -0.398438 12.75 -0.296875 C 12.507812 -0.203125 12.285156 -0.128906 12.078125 -0.078125 C 11.878906 -0.0234375 11.675781 0 11.46875 0 L 9.765625 0 L 10.328125 -0.359375 L 8.609375 -6.015625 C 8.398438 -5.953125 8.160156 -5.894531 7.890625 -5.84375 C 7.628906 -5.789062 7.3125 -5.742188 6.9375 -5.703125 C 6.5625 -5.660156 6.125 -5.617188 5.625 -5.578125 C 5.132812 -5.546875 4.566406 -5.515625 3.921875 -5.484375 C 3.617188 -4.847656 3.34375 -4.285156 3.09375 -3.796875 C 2.84375 -3.304688 2.617188 -2.878906 2.421875 -2.515625 C 2.222656 -2.148438 2.046875 -1.84375 1.890625 -1.59375 C 1.742188 -1.351562 1.613281 -1.15625 1.5 -1 C 1.625 -0.976562 1.757812 -0.960938 1.90625 -0.953125 C 2.0625 -0.941406 2.210938 -0.9375 2.359375 -0.9375 C 2.585938 -0.9375 2.8125 -0.945312 3.03125 -0.96875 C 3.257812 -0.988281 3.46875 -1.007812 3.65625 -1.03125 C 3.863281 -1.050781 4.066406 -1.078125 4.265625 -1.109375 Z M 5.75 -6.75 C 6.707031 -6.75 7.582031 -6.773438 8.375 -6.828125 L 6.734375 -12.25 C 6.296875 -11.113281 5.890625 -10.097656 5.515625 -9.203125 C 5.148438 -8.316406 4.804688 -7.5 4.484375 -6.75 Z M 5.75 -6.75 "/></g></g></g><g fill="#ccf381" fill-opacity="1"><g transform="translate(158.411844, 227.709646)"><g><path d="M 14.078125 -14.671875 C 13.953125 -14.503906 13.796875 -14.34375 13.609375 -14.1875 C 13.453125 -14.050781 13.257812 -13.90625 13.03125 -13.75 C 12.800781 -13.601562 12.53125 -13.472656 12.21875 -13.359375 C 12.320312 -13.484375 12.332031 -13.617188 12.25 -13.765625 C 12.164062 -13.910156 11.984375 -14.039062 11.703125 -14.15625 C 11.429688 -14.28125 11.054688 -14.378906 10.578125 -14.453125 C 10.109375 -14.535156 9.53125 -14.578125 8.84375 -14.578125 C 8.445312 -14.578125 8.019531 -14.535156 7.5625 -14.453125 C 7.101562 -14.367188 6.648438 -14.226562 6.203125 -14.03125 C 5.753906 -13.832031 5.320312 -13.566406 4.90625 -13.234375 C 4.488281 -12.910156 4.117188 -12.5 3.796875 -12 C 3.472656 -11.507812 3.21875 -10.921875 3.03125 -10.234375 C 2.84375 -9.554688 2.75 -8.773438 2.75 -7.890625 C 2.75 -6.992188 2.859375 -6.207031 3.078125 -5.53125 C 3.296875 -4.863281 3.582031 -4.285156 3.9375 -3.796875 C 4.300781 -3.304688 4.710938 -2.898438 5.171875 -2.578125 C 5.640625 -2.253906 6.113281 -1.992188 6.59375 -1.796875 C 7.082031 -1.597656 7.554688 -1.457031 8.015625 -1.375 C 8.484375 -1.300781 8.90625 -1.265625 9.28125 -1.265625 C 9.71875 -1.273438 10.171875 -1.304688 10.640625 -1.359375 C 11.046875 -1.410156 11.492188 -1.484375 11.984375 -1.578125 C 12.472656 -1.679688 12.953125 -1.820312 13.421875 -2 C 12.722656 -1.445312 12.078125 -1.023438 11.484375 -0.734375 C 10.898438 -0.441406 10.382812 -0.222656 9.9375 -0.078125 C 9.414062 0.078125 8.9375 0.164062 8.5 0.1875 C 7.445312 0.1875 6.453125 0.0351562 5.515625 -0.265625 C 4.585938 -0.578125 3.773438 -1.023438 3.078125 -1.609375 C 2.378906 -2.203125 1.828125 -2.925781 1.421875 -3.78125 C 1.015625 -4.632812 0.8125 -5.601562 0.8125 -6.6875 C 0.8125 -7.363281 0.875 -7.992188 1 -8.578125 C 1.132812 -9.160156 1.304688 -9.691406 1.515625 -10.171875 C 1.722656 -10.648438 1.957031 -11.082031 2.21875 -11.46875 C 2.476562 -11.863281 2.742188 -12.207031 3.015625 -12.5 C 3.296875 -12.800781 3.566406 -13.050781 3.828125 -13.25 C 4.085938 -13.445312 4.3125 -13.597656 4.5 -13.703125 C 4.6875 -13.804688 4.921875 -13.925781 5.203125 -14.0625 C 5.492188 -14.195312 5.8125 -14.332031 6.15625 -14.46875 C 6.507812 -14.613281 6.875 -14.753906 7.25 -14.890625 C 7.632812 -15.023438 8.023438 -15.144531 8.421875 -15.25 C 8.828125 -15.351562 9.21875 -15.4375 9.59375 -15.5 C 9.976562 -15.570312 10.34375 -15.609375 10.6875 -15.609375 C 11.445312 -15.609375 12.0625 -15.570312 12.53125 -15.5 C 13 -15.425781 13.351562 -15.335938 13.59375 -15.234375 C 13.84375 -15.128906 14 -15.023438 14.0625 -14.921875 C 14.125 -14.816406 14.128906 -14.734375 14.078125 -14.671875 Z M 14.078125 -14.671875 "/></g></g></g><g fill="#ccf381" fill-opacity="1"><g transform="translate(174.281346, 227.709646)"><g><path d="M 9.375 -8.375 C 9.3125 -8.34375 9.21875 -8.285156 9.09375 -8.203125 C 8.976562 -8.128906 8.816406 -8.023438 8.609375 -7.890625 C 8.398438 -7.753906 8.125 -7.566406 7.78125 -7.328125 C 7.832031 -7.429688 7.828125 -7.507812 7.765625 -7.5625 C 7.710938 -7.625 7.632812 -7.664062 7.53125 -7.6875 C 7.414062 -7.71875 7.273438 -7.726562 7.109375 -7.71875 C 6.847656 -7.695312 6.476562 -7.671875 6 -7.640625 C 5.519531 -7.609375 4.976562 -7.582031 4.375 -7.5625 C 4.375 -6.425781 4.363281 -5.5 4.34375 -4.78125 C 4.332031 -4.070312 4.328125 -3.515625 4.328125 -3.109375 C 4.304688 -2.640625 4.289062 -2.296875 4.28125 -2.078125 C 4.269531 -1.941406 4.226562 -1.804688 4.15625 -1.671875 C 4.09375 -1.546875 4 -1.414062 3.875 -1.28125 C 3.75 -1.144531 3.578125 -1.023438 3.359375 -0.921875 L 8.203125 -0.921875 C 8.421875 -0.921875 8.648438 -0.929688 8.890625 -0.953125 C 9.085938 -0.984375 9.300781 -1.019531 9.53125 -1.0625 C 9.757812 -1.113281 9.976562 -1.191406 10.1875 -1.296875 C 9.832031 -0.960938 9.476562 -0.703125 9.125 -0.515625 C 8.78125 -0.335938 8.460938 -0.210938 8.171875 -0.140625 C 7.828125 -0.046875 7.5 0.00390625 7.1875 0.015625 C 6.488281 0.015625 5.832031 0.0195312 5.21875 0.03125 C 4.601562 0.0390625 4.046875 0.0546875 3.546875 0.078125 C 3.046875 0.0976562 2.617188 0.125 2.265625 0.15625 C 1.910156 0.1875 1.65625 0.222656 1.5 0.265625 C 1.71875 0.046875 1.890625 -0.164062 2.015625 -0.375 C 2.140625 -0.59375 2.234375 -0.832031 2.296875 -1.09375 C 2.367188 -1.363281 2.410156 -1.660156 2.421875 -1.984375 C 2.441406 -2.316406 2.445312 -2.710938 2.4375 -3.171875 L 2.4375 -7.546875 C 2.238281 -7.546875 2.039062 -7.546875 1.84375 -7.546875 C 1.644531 -7.554688 1.453125 -7.570312 1.265625 -7.59375 L 2.4375 -8.203125 C 2.4375 -8.585938 2.4375 -8.988281 2.4375 -9.40625 C 2.4375 -9.832031 2.4375 -10.285156 2.4375 -10.765625 C 2.4375 -11.253906 2.429688 -11.773438 2.421875 -12.328125 C 2.421875 -12.890625 2.421875 -13.5 2.421875 -14.15625 C 2.097656 -14.15625 1.796875 -14.160156 1.515625 -14.171875 C 1.234375 -14.179688 0.96875 -14.191406 0.71875 -14.203125 L 2.71875 -15.265625 C 4.0625 -15.265625 5.210938 -15.269531 6.171875 -15.28125 C 7.128906 -15.300781 7.921875 -15.320312 8.546875 -15.34375 C 9.273438 -15.375 9.878906 -15.40625 10.359375 -15.4375 C 10.609375 -15.4375 10.769531 -15.414062 10.84375 -15.375 C 10.925781 -15.332031 10.957031 -15.285156 10.9375 -15.234375 C 10.925781 -15.191406 10.882812 -15.144531 10.8125 -15.09375 C 10.738281 -15.050781 10.675781 -15.019531 10.625 -15 C 10.5625 -14.96875 10.453125 -14.90625 10.296875 -14.8125 C 10.160156 -14.738281 9.96875 -14.617188 9.71875 -14.453125 C 9.476562 -14.285156 9.144531 -14.054688 8.71875 -13.765625 C 8.863281 -13.921875 8.925781 -14.035156 8.90625 -14.109375 C 8.882812 -14.191406 8.832031 -14.25 8.75 -14.28125 C 8.65625 -14.3125 8.53125 -14.328125 8.375 -14.328125 C 8.238281 -14.316406 8.035156 -14.304688 7.765625 -14.296875 C 7.492188 -14.285156 7.175781 -14.269531 6.8125 -14.25 C 6.457031 -14.238281 6.066406 -14.226562 5.640625 -14.21875 C 5.222656 -14.207031 4.796875 -14.195312 4.359375 -14.1875 C 4.359375 -13.050781 4.359375 -12.03125 4.359375 -11.125 C 4.367188 -10.21875 4.375 -9.390625 4.375 -8.640625 C 5.101562 -8.640625 5.753906 -8.648438 6.328125 -8.671875 C 6.910156 -8.691406 7.410156 -8.710938 7.828125 -8.734375 C 8.304688 -8.765625 8.734375 -8.789062 9.109375 -8.8125 C 9.347656 -8.8125 9.503906 -8.789062 9.578125 -8.75 C 9.660156 -8.71875 9.691406 -8.675781 9.671875 -8.625 C 9.660156 -8.582031 9.617188 -8.535156 9.546875 -8.484375 C 9.484375 -8.429688 9.425781 -8.394531 9.375 -8.375 Z M 9.375 -8.375 "/></g></g></g><g fill="#ccf381" fill-opacity="1"><g transform="translate(187.097818, 227.709646)"><g/></g></g><g fill="#ccf381" fill-opacity="1"><g transform="translate(194.181843, 227.709646)"><g><path d="M 21.546875 -1.265625 C 21.378906 -1.128906 21.140625 -0.96875 20.828125 -0.78125 C 20.523438 -0.601562 20.164062 -0.4375 19.75 -0.28125 C 19.34375 -0.125 18.894531 0.00390625 18.40625 0.109375 C 17.914062 0.210938 17.40625 0.265625 16.875 0.265625 C 16.96875 0.0976562 17.039062 -0.0507812 17.09375 -0.1875 C 17.15625 -0.332031 17.207031 -0.472656 17.25 -0.609375 C 17.289062 -0.742188 17.316406 -0.878906 17.328125 -1.015625 C 17.347656 -1.148438 17.359375 -1.300781 17.359375 -1.46875 C 17.359375 -1.644531 17.347656 -1.960938 17.328125 -2.421875 C 17.304688 -2.878906 17.28125 -3.414062 17.25 -4.03125 C 17.21875 -4.65625 17.179688 -5.332031 17.140625 -6.0625 C 17.109375 -6.789062 17.078125 -7.507812 17.046875 -8.21875 C 17.015625 -8.925781 16.984375 -9.597656 16.953125 -10.234375 C 16.929688 -10.878906 16.921875 -11.429688 16.921875 -11.890625 C 16.546875 -11.222656 16.171875 -10.609375 15.796875 -10.046875 C 15.429688 -9.492188 15.070312 -8.960938 14.71875 -8.453125 C 14.375 -7.941406 14.035156 -7.441406 13.703125 -6.953125 C 13.367188 -6.460938 13.046875 -5.953125 12.734375 -5.421875 C 12.429688 -4.890625 12.140625 -4.332031 11.859375 -3.75 C 11.578125 -3.164062 11.316406 -2.519531 11.078125 -1.8125 L 9.21875 0.265625 C 9.238281 0.015625 9.191406 -0.28125 9.078125 -0.625 C 8.972656 -0.976562 8.847656 -1.320312 8.703125 -1.65625 C 8.546875 -2.039062 8.363281 -2.4375 8.15625 -2.84375 C 7.914062 -3.28125 7.59375 -3.882812 7.1875 -4.65625 C 6.832031 -5.300781 6.363281 -6.164062 5.78125 -7.25 C 5.207031 -8.332031 4.488281 -9.675781 3.625 -11.28125 C 3.570312 -10.414062 3.523438 -9.535156 3.484375 -8.640625 C 3.441406 -7.753906 3.378906 -6.875 3.296875 -6 C 3.222656 -5.132812 3.113281 -4.28125 2.96875 -3.4375 C 2.832031 -2.601562 2.648438 -1.8125 2.421875 -1.0625 C 2.546875 -1.019531 2.679688 -0.988281 2.828125 -0.96875 C 2.972656 -0.945312 3.125 -0.9375 3.28125 -0.9375 C 3.4375 -0.9375 3.582031 -0.941406 3.71875 -0.953125 C 3.863281 -0.972656 3.992188 -0.988281 4.109375 -1 C 4.234375 -1.019531 4.359375 -1.039062 4.484375 -1.0625 C 4.179688 -0.832031 3.90625 -0.632812 3.65625 -0.46875 C 3.40625 -0.3125 3.144531 -0.175781 2.875 -0.0625 C 2.601562 0.0507812 2.304688 0.132812 1.984375 0.1875 C 1.671875 0.238281 1.296875 0.265625 0.859375 0.265625 C 1.054688 0.078125 1.226562 -0.238281 1.375 -0.6875 C 1.519531 -1.132812 1.644531 -1.664062 1.75 -2.28125 C 1.851562 -2.894531 1.9375 -3.570312 2 -4.3125 C 2.070312 -5.0625 2.132812 -5.828125 2.1875 -6.609375 C 2.25 -7.398438 2.296875 -8.191406 2.328125 -8.984375 C 2.359375 -9.773438 2.390625 -10.523438 2.421875 -11.234375 C 2.453125 -11.941406 2.484375 -12.585938 2.515625 -13.171875 C 2.554688 -13.765625 2.609375 -14.25 2.671875 -14.625 L 4.21875 -16.328125 C 4.15625 -16.210938 4.125 -16.082031 4.125 -15.9375 C 4.125 -15.800781 4.140625 -15.671875 4.171875 -15.546875 C 4.203125 -15.390625 4.242188 -15.234375 4.296875 -15.078125 C 4.335938 -14.984375 4.4375 -14.78125 4.59375 -14.46875 C 4.75 -14.15625 4.941406 -13.769531 5.171875 -13.3125 C 5.410156 -12.851562 5.679688 -12.332031 5.984375 -11.75 C 6.285156 -11.175781 6.597656 -10.570312 6.921875 -9.9375 C 7.253906 -9.3125 7.585938 -8.675781 7.921875 -8.03125 C 8.253906 -7.382812 8.570312 -6.765625 8.875 -6.171875 C 9.1875 -5.585938 9.46875 -5.039062 9.71875 -4.53125 C 9.976562 -4.019531 10.191406 -3.585938 10.359375 -3.234375 C 10.960938 -4.171875 11.578125 -5.117188 12.203125 -6.078125 C 12.828125 -7.046875 13.425781 -8.003906 14 -8.953125 C 14.570312 -9.910156 15.101562 -10.859375 15.59375 -11.796875 C 16.09375 -12.742188 16.519531 -13.671875 16.875 -14.578125 L 19.109375 -16.328125 C 19.066406 -15.015625 19.054688 -13.753906 19.078125 -12.546875 C 19.097656 -11.335938 19.128906 -10.160156 19.171875 -9.015625 C 19.222656 -7.867188 19.269531 -6.742188 19.3125 -5.640625 C 19.351562 -4.535156 19.375 -3.4375 19.375 -2.34375 C 19.375 -2.019531 19.351562 -1.753906 19.3125 -1.546875 C 19.269531 -1.347656 19.203125 -1.207031 19.109375 -1.125 C 19.429688 -1.082031 19.765625 -1.0625 20.109375 -1.0625 C 20.390625 -1.0625 20.65625 -1.078125 20.90625 -1.109375 C 21.164062 -1.140625 21.378906 -1.191406 21.546875 -1.265625 Z M 21.546875 -1.265625 "/></g></g></g><g fill="#ccf381" fill-opacity="1"><g transform="translate(217.449092, 227.709646)"><g><path d="M 9.375 -8.375 C 9.3125 -8.34375 9.21875 -8.285156 9.09375 -8.203125 C 8.976562 -8.128906 8.816406 -8.023438 8.609375 -7.890625 C 8.398438 -7.753906 8.125 -7.566406 7.78125 -7.328125 C 7.832031 -7.429688 7.828125 -7.507812 7.765625 -7.5625 C 7.710938 -7.625 7.632812 -7.664062 7.53125 -7.6875 C 7.414062 -7.71875 7.273438 -7.726562 7.109375 -7.71875 C 6.847656 -7.695312 6.476562 -7.671875 6 -7.640625 C 5.519531 -7.609375 4.976562 -7.582031 4.375 -7.5625 C 4.375 -6.425781 4.363281 -5.5 4.34375 -4.78125 C 4.332031 -4.070312 4.328125 -3.515625 4.328125 -3.109375 C 4.304688 -2.640625 4.289062 -2.296875 4.28125 -2.078125 C 4.269531 -1.941406 4.226562 -1.804688 4.15625 -1.671875 C 4.09375 -1.546875 4 -1.414062 3.875 -1.28125 C 3.75 -1.144531 3.578125 -1.023438 3.359375 -0.921875 L 8.203125 -0.921875 C 8.421875 -0.921875 8.648438 -0.929688 8.890625 -0.953125 C 9.085938 -0.984375 9.300781 -1.019531 9.53125 -1.0625 C 9.757812 -1.113281 9.976562 -1.191406 10.1875 -1.296875 C 9.832031 -0.960938 9.476562 -0.703125 9.125 -0.515625 C 8.78125 -0.335938 8.460938 -0.210938 8.171875 -0.140625 C 7.828125 -0.046875 7.5 0.00390625 7.1875 0.015625 C 6.488281 0.015625 5.832031 0.0195312 5.21875 0.03125 C 4.601562 0.0390625 4.046875 0.0546875 3.546875 0.078125 C 3.046875 0.0976562 2.617188 0.125 2.265625 0.15625 C 1.910156 0.1875 1.65625 0.222656 1.5 0.265625 C 1.71875 0.046875 1.890625 -0.164062 2.015625 -0.375 C 2.140625 -0.59375 2.234375 -0.832031 2.296875 -1.09375 C 2.367188 -1.363281 2.410156 -1.660156 2.421875 -1.984375 C 2.441406 -2.316406 2.445312 -2.710938 2.4375 -3.171875 L 2.4375 -7.546875 C 2.238281 -7.546875 2.039062 -7.546875 1.84375 -7.546875 C 1.644531 -7.554688 1.453125 -7.570312 1.265625 -7.59375 L 2.4375 -8.203125 C 2.4375 -8.585938 2.4375 -8.988281 2.4375 -9.40625 C 2.4375 -9.832031 2.4375 -10.285156 2.4375 -10.765625 C 2.4375 -11.253906 2.429688 -11.773438 2.421875 -12.328125 C 2.421875 -12.890625 2.421875 -13.5 2.421875 -14.15625 C 2.097656 -14.15625 1.796875 -14.160156 1.515625 -14.171875 C 1.234375 -14.179688 0.96875 -14.191406 0.71875 -14.203125 L 2.71875 -15.265625 C 4.0625 -15.265625 5.210938 -15.269531 6.171875 -15.28125 C 7.128906 -15.300781 7.921875 -15.320312 8.546875 -15.34375 C 9.273438 -15.375 9.878906 -15.40625 10.359375 -15.4375 C 10.609375 -15.4375 10.769531 -15.414062 10.84375 -15.375 C 10.925781 -15.332031 10.957031 -15.285156 10.9375 -15.234375 C 10.925781 -15.191406 10.882812 -15.144531 10.8125 -15.09375 C 10.738281 -15.050781 10.675781 -15.019531 10.625 -15 C 10.5625 -14.96875 10.453125 -14.90625 10.296875 -14.8125 C 10.160156 -14.738281 9.96875 -14.617188 9.71875 -14.453125 C 9.476562 -14.285156 9.144531 -14.054688 8.71875 -13.765625 C 8.863281 -13.921875 8.925781 -14.035156 8.90625 -14.109375 C 8.882812 -14.191406 8.832031 -14.25 8.75 -14.28125 C 8.65625 -14.3125 8.53125 -14.328125 8.375 -14.328125 C 8.238281 -14.316406 8.035156 -14.304688 7.765625 -14.296875 C 7.492188 -14.285156 7.175781 -14.269531 6.8125 -14.25 C 6.457031 -14.238281 6.066406 -14.226562 5.640625 -14.21875 C 5.222656 -14.207031 4.796875 -14.195312 4.359375 -14.1875 C 4.359375 -13.050781 4.359375 -12.03125 4.359375 -11.125 C 4.367188 -10.21875 4.375 -9.390625 4.375 -8.640625 C 5.101562 -8.640625 5.753906 -8.648438 6.328125 -8.671875 C 6.910156 -8.691406 7.410156 -8.710938 7.828125 -8.734375 C 8.304688 -8.765625 8.734375 -8.789062 9.109375 -8.8125 C 9.347656 -8.8125 9.503906 -8.789062 9.578125 -8.75 C 9.660156 -8.71875 9.691406 -8.675781 9.671875 -8.625 C 9.660156 -8.582031 9.617188 -8.535156 9.546875 -8.484375 C 9.484375 -8.429688 9.425781 -8.394531 9.375 -8.375 Z M 9.375 -8.375 "/></g></g></g><g fill="#ccf381" fill-opacity="1"><g transform="translate(230.265564, 227.709646)"><g><path d="M 3.078125 -1.96875 C 3.066406 -1.90625 3.035156 -1.828125 2.984375 -1.734375 C 2.941406 -1.660156 2.878906 -1.5625 2.796875 -1.4375 C 2.722656 -1.320312 2.617188 -1.1875 2.484375 -1.03125 C 2.691406 -0.976562 2.898438 -0.945312 3.109375 -0.9375 C 3.316406 -0.925781 3.507812 -0.921875 3.6875 -0.921875 C 4.050781 -0.921875 4.34375 -0.929688 4.5625 -0.953125 C 4.789062 -0.984375 4.925781 -1.007812 4.96875 -1.03125 C 4.632812 -0.875 4.351562 -0.726562 4.125 -0.59375 C 3.90625 -0.457031 3.679688 -0.335938 3.453125 -0.234375 C 3.222656 -0.128906 2.957031 -0.046875 2.65625 0.015625 C 2.363281 0.0859375 1.972656 0.132812 1.484375 0.15625 C 1.515625 0.132812 1.5625 0.078125 1.625 -0.015625 L 1.421875 0.15625 C 1.316406 0.164062 1.210938 0.171875 1.109375 0.171875 C 1.003906 0.171875 0.898438 0.171875 0.796875 0.171875 L 1.765625 -0.5625 C 1.796875 -0.738281 1.828125 -0.929688 1.859375 -1.140625 C 1.890625 -1.359375 1.914062 -1.582031 1.9375 -1.8125 C 1.957031 -2.050781 1.976562 -2.289062 2 -2.53125 C 2.019531 -2.769531 2.035156 -3.003906 2.046875 -3.234375 C 2.085938 -3.765625 2.117188 -4.304688 2.140625 -4.859375 C 2.179688 -6.472656 2.207031 -8.0625 2.21875 -9.625 C 2.238281 -11.1875 2.25 -12.753906 2.25 -14.328125 L 3.4375 -16.25 C 3.476562 -15.5625 3.609375 -14.898438 3.828125 -14.265625 C 4.046875 -13.640625 4.332031 -13.023438 4.6875 -12.421875 C 5.050781 -11.828125 5.457031 -11.253906 5.90625 -10.703125 C 6.363281 -10.160156 6.847656 -9.625 7.359375 -9.09375 C 7.878906 -8.5625 8.40625 -8.039062 8.9375 -7.53125 C 9.46875 -7.03125 9.984375 -6.535156 10.484375 -6.046875 C 10.992188 -5.554688 11.472656 -5.066406 11.921875 -4.578125 C 12.378906 -4.085938 12.78125 -3.597656 13.125 -3.109375 C 13.226562 -4.648438 13.296875 -6.15625 13.328125 -7.625 C 13.359375 -9.09375 13.375 -10.554688 13.375 -12.015625 C 13.375 -12.671875 13.351562 -13.1875 13.3125 -13.5625 C 13.28125 -13.9375 13.226562 -14.25 13.15625 -14.5 C 13.070312 -14.476562 12.984375 -14.46875 12.890625 -14.46875 C 12.796875 -14.46875 12.695312 -14.46875 12.59375 -14.46875 C 12.34375 -14.46875 12.101562 -14.460938 11.875 -14.453125 C 11.644531 -14.441406 11.453125 -14.398438 11.296875 -14.328125 C 11.566406 -14.515625 11.828125 -14.6875 12.078125 -14.84375 C 12.328125 -15 12.578125 -15.128906 12.828125 -15.234375 C 13.078125 -15.347656 13.332031 -15.4375 13.59375 -15.5 C 13.851562 -15.570312 14.132812 -15.609375 14.4375 -15.609375 C 14.59375 -15.609375 14.769531 -15.601562 14.96875 -15.59375 C 15.175781 -15.582031 15.398438 -15.554688 15.640625 -15.515625 C 15.453125 -15.398438 15.269531 -15.289062 15.09375 -15.1875 C 14.925781 -15.09375 14.757812 -15.007812 14.59375 -14.9375 C 14.582031 -12.757812 14.519531 -10.617188 14.40625 -8.515625 C 14.300781 -6.410156 14.195312 -4.304688 14.09375 -2.203125 C 13.664062 -1.503906 13.359375 -0.929688 13.171875 -0.484375 C 12.984375 -0.0351562 12.875 0.234375 12.84375 0.328125 L 12.84375 0.375 C 12.519531 -0.363281 12.117188 -1.050781 11.640625 -1.6875 C 11.171875 -2.332031 10.648438 -2.945312 10.078125 -3.53125 C 9.515625 -4.113281 8.925781 -4.679688 8.3125 -5.234375 C 7.695312 -5.796875 7.09375 -6.363281 6.5 -6.9375 C 5.914062 -7.519531 5.359375 -8.125 4.828125 -8.75 C 4.296875 -9.382812 3.832031 -10.066406 3.4375 -10.796875 C 3.425781 -10.179688 3.414062 -9.5625 3.40625 -8.9375 C 3.394531 -8.320312 3.378906 -7.71875 3.359375 -7.125 C 3.347656 -6.539062 3.332031 -5.976562 3.3125 -5.4375 C 3.289062 -4.894531 3.269531 -4.398438 3.25 -3.953125 C 3.226562 -3.503906 3.203125 -3.109375 3.171875 -2.765625 C 3.140625 -2.421875 3.109375 -2.15625 3.078125 -1.96875 Z M 1.484375 0.15625 C 1.472656 0.164062 1.453125 0.171875 1.421875 0.171875 L 1.421875 0.15625 Z M 1.484375 0.15625 "/></g></g></g><g fill="#ccf381" fill-opacity="1"><g transform="translate(248.323424, 227.709646)"><g><path d="M 9.375 -8.375 C 9.3125 -8.34375 9.21875 -8.285156 9.09375 -8.203125 C 8.976562 -8.128906 8.816406 -8.023438 8.609375 -7.890625 C 8.398438 -7.753906 8.125 -7.566406 7.78125 -7.328125 C 7.832031 -7.429688 7.828125 -7.507812 7.765625 -7.5625 C 7.710938 -7.625 7.632812 -7.664062 7.53125 -7.6875 C 7.414062 -7.71875 7.273438 -7.726562 7.109375 -7.71875 C 6.847656 -7.695312 6.476562 -7.671875 6 -7.640625 C 5.519531 -7.609375 4.976562 -7.582031 4.375 -7.5625 C 4.375 -6.425781 4.363281 -5.5 4.34375 -4.78125 C 4.332031 -4.070312 4.328125 -3.515625 4.328125 -3.109375 C 4.304688 -2.640625 4.289062 -2.296875 4.28125 -2.078125 C 4.269531 -1.941406 4.226562 -1.804688 4.15625 -1.671875 C 4.09375 -1.546875 4 -1.414062 3.875 -1.28125 C 3.75 -1.144531 3.578125 -1.023438 3.359375 -0.921875 L 8.203125 -0.921875 C 8.421875 -0.921875 8.648438 -0.929688 8.890625 -0.953125 C 9.085938 -0.984375 9.300781 -1.019531 9.53125 -1.0625 C 9.757812 -1.113281 9.976562 -1.191406 10.1875 -1.296875 C 9.832031 -0.960938 9.476562 -0.703125 9.125 -0.515625 C 8.78125 -0.335938 8.460938 -0.210938 8.171875 -0.140625 C 7.828125 -0.046875 7.5 0.00390625 7.1875 0.015625 C 6.488281 0.015625 5.832031 0.0195312 5.21875 0.03125 C 4.601562 0.0390625 4.046875 0.0546875 3.546875 0.078125 C 3.046875 0.0976562 2.617188 0.125 2.265625 0.15625 C 1.910156 0.1875 1.65625 0.222656 1.5 0.265625 C 1.71875 0.046875 1.890625 -0.164062 2.015625 -0.375 C 2.140625 -0.59375 2.234375 -0.832031 2.296875 -1.09375 C 2.367188 -1.363281 2.410156 -1.660156 2.421875 -1.984375 C 2.441406 -2.316406 2.445312 -2.710938 2.4375 -3.171875 L 2.4375 -7.546875 C 2.238281 -7.546875 2.039062 -7.546875 1.84375 -7.546875 C 1.644531 -7.554688 1.453125 -7.570312 1.265625 -7.59375 L 2.4375 -8.203125 C 2.4375 -8.585938 2.4375 -8.988281 2.4375 -9.40625 C 2.4375 -9.832031 2.4375 -10.285156 2.4375 -10.765625 C 2.4375 -11.253906 2.429688 -11.773438 2.421875 -12.328125 C 2.421875 -12.890625 2.421875 -13.5 2.421875 -14.15625 C 2.097656 -14.15625 1.796875 -14.160156 1.515625 -14.171875 C 1.234375 -14.179688 0.96875 -14.191406 0.71875 -14.203125 L 2.71875 -15.265625 C 4.0625 -15.265625 5.210938 -15.269531 6.171875 -15.28125 C 7.128906 -15.300781 7.921875 -15.320312 8.546875 -15.34375 C 9.273438 -15.375 9.878906 -15.40625 10.359375 -15.4375 C 10.609375 -15.4375 10.769531 -15.414062 10.84375 -15.375 C 10.925781 -15.332031 10.957031 -15.285156 10.9375 -15.234375 C 10.925781 -15.191406 10.882812 -15.144531 10.8125 -15.09375 C 10.738281 -15.050781 10.675781 -15.019531 10.625 -15 C 10.5625 -14.96875 10.453125 -14.90625 10.296875 -14.8125 C 10.160156 -14.738281 9.96875 -14.617188 9.71875 -14.453125 C 9.476562 -14.285156 9.144531 -14.054688 8.71875 -13.765625 C 8.863281 -13.921875 8.925781 -14.035156 8.90625 -14.109375 C 8.882812 -14.191406 8.832031 -14.25 8.75 -14.28125 C 8.65625 -14.3125 8.53125 -14.328125 8.375 -14.328125 C 8.238281 -14.316406 8.035156 -14.304688 7.765625 -14.296875 C 7.492188 -14.285156 7.175781 -14.269531 6.8125 -14.25 C 6.457031 -14.238281 6.066406 -14.226562 5.640625 -14.21875 C 5.222656 -14.207031 4.796875 -14.195312 4.359375 -14.1875 C 4.359375 -13.050781 4.359375 -12.03125 4.359375 -11.125 C 4.367188 -10.21875 4.375 -9.390625 4.375 -8.640625 C 5.101562 -8.640625 5.753906 -8.648438 6.328125 -8.671875 C 6.910156 -8.691406 7.410156 -8.710938 7.828125 -8.734375 C 8.304688 -8.765625 8.734375 -8.789062 9.109375 -8.8125 C 9.347656 -8.8125 9.503906 -8.789062 9.578125 -8.75 C 9.660156 -8.71875 9.691406 -8.675781 9.671875 -8.625 C 9.660156 -8.582031 9.617188 -8.535156 9.546875 -8.484375 C 9.484375 -8.429688 9.425781 -8.394531 9.375 -8.375 Z M 9.375 -8.375 "/></g></g></g><g fill="#ccf381" fill-opacity="1"><g transform="translate(261.139897, 227.709646)"><g><path d="M 10.078125 -8.71875 C 9.753906 -8.539062 9.46875 -8.378906 9.21875 -8.234375 C 8.96875 -8.085938 8.726562 -7.957031 8.5 -7.84375 C 8.28125 -7.738281 8.070312 -7.644531 7.875 -7.5625 C 7.6875 -7.488281 7.492188 -7.4375 7.296875 -7.40625 C 7.191406 -7.382812 7.050781 -7.367188 6.875 -7.359375 C 6.707031 -7.359375 6.515625 -7.359375 6.296875 -7.359375 C 6.117188 -7.015625 5.960938 -6.710938 5.828125 -6.453125 C 5.703125 -6.203125 5.59375 -6 5.5 -5.84375 C 5.394531 -5.644531 5.300781 -5.476562 5.21875 -5.34375 C 4.601562 -4.082031 4.078125 -3.101562 3.640625 -2.40625 C 3.210938 -1.707031 2.851562 -1.25 2.5625 -1.03125 C 2.75 -1.0625 2.929688 -1.082031 3.109375 -1.09375 C 3.296875 -1.101562 3.488281 -1.109375 3.6875 -1.109375 C 4.007812 -1.109375 4.328125 -1.097656 4.640625 -1.078125 C 4.953125 -1.054688 5.257812 -1.035156 5.5625 -1.015625 C 5.875 -1.003906 6.175781 -0.992188 6.46875 -0.984375 C 6.757812 -0.972656 7.050781 -0.988281 7.34375 -1.03125 C 7.738281 -1.050781 8.144531 -1.082031 8.5625 -1.125 C 8.925781 -1.15625 9.328125 -1.203125 9.765625 -1.265625 C 10.203125 -1.335938 10.632812 -1.429688 11.0625 -1.546875 C 10.695312 -1.179688 10.316406 -0.882812 9.921875 -0.65625 C 9.535156 -0.425781 9.132812 -0.25 8.71875 -0.125 C 8.300781 0 7.875 0.0859375 7.4375 0.140625 C 7 0.191406 6.550781 0.21875 6.09375 0.21875 C 5.664062 0.21875 5.226562 0.207031 4.78125 0.1875 C 4.34375 0.164062 3.925781 0.144531 3.53125 0.125 C 3.144531 0.101562 2.796875 0.0820312 2.484375 0.0625 C 2.179688 0.0507812 1.953125 0.046875 1.796875 0.046875 C 1.617188 0.046875 1.441406 0.0507812 1.265625 0.0625 C 1.109375 0.0703125 0.945312 0.0859375 0.78125 0.109375 C 0.625 0.140625 0.488281 0.175781 0.375 0.21875 C 0.5625 -0.0078125 0.765625 -0.28125 0.984375 -0.59375 C 1.203125 -0.914062 1.421875 -1.257812 1.640625 -1.625 C 1.867188 -1.988281 2.09375 -2.363281 2.3125 -2.75 C 2.53125 -3.132812 2.742188 -3.515625 2.953125 -3.890625 C 3.421875 -4.753906 3.890625 -5.664062 4.359375 -6.625 C 4.378906 -6.675781 4.40625 -6.742188 4.4375 -6.828125 C 4.46875 -6.890625 4.503906 -6.960938 4.546875 -7.046875 C 4.585938 -7.140625 4.640625 -7.242188 4.703125 -7.359375 C 4.296875 -7.347656 3.878906 -7.328125 3.453125 -7.296875 C 3.023438 -7.265625 2.609375 -7.207031 2.203125 -7.125 L 4.0625 -8.375 C 4.269531 -8.375 4.460938 -8.375 4.640625 -8.375 C 4.828125 -8.375 5.015625 -8.378906 5.203125 -8.390625 C 5.378906 -8.773438 5.578125 -9.207031 5.796875 -9.6875 C 6.023438 -10.175781 6.257812 -10.671875 6.5 -11.171875 C 6.738281 -11.679688 6.96875 -12.191406 7.1875 -12.703125 C 7.414062 -13.222656 7.632812 -13.71875 7.84375 -14.1875 C 7.613281 -14.164062 7.34375 -14.144531 7.03125 -14.125 C 6.726562 -14.101562 6.40625 -14.082031 6.0625 -14.0625 C 5.726562 -14.050781 5.382812 -14.039062 5.03125 -14.03125 C 4.675781 -14.019531 4.335938 -14.007812 4.015625 -14 C 3.703125 -14 3.414062 -13.992188 3.15625 -13.984375 C 2.894531 -13.984375 2.691406 -13.988281 2.546875 -14 C 2.367188 -14 2.171875 -13.988281 1.953125 -13.96875 C 1.765625 -13.957031 1.550781 -13.925781 1.3125 -13.875 C 1.082031 -13.820312 0.832031 -13.75 0.5625 -13.65625 C 0.894531 -14.082031 1.210938 -14.40625 1.515625 -14.625 C 1.828125 -14.851562 2.101562 -15.023438 2.34375 -15.140625 C 2.613281 -15.265625 2.867188 -15.332031 3.109375 -15.34375 C 3.304688 -15.34375 3.613281 -15.335938 4.03125 -15.328125 C 4.457031 -15.316406 4.929688 -15.304688 5.453125 -15.296875 C 5.984375 -15.285156 6.535156 -15.273438 7.109375 -15.265625 C 7.691406 -15.265625 8.242188 -15.265625 8.765625 -15.265625 C 9.296875 -15.265625 9.765625 -15.269531 10.171875 -15.28125 C 10.578125 -15.289062 10.875 -15.3125 11.0625 -15.34375 C 10.882812 -15.226562 10.707031 -15.125 10.53125 -15.03125 C 10.351562 -14.9375 10.171875 -14.84375 9.984375 -14.75 C 9.285156 -13.320312 8.679688 -12.097656 8.171875 -11.078125 C 7.671875 -10.066406 7.234375 -9.195312 6.859375 -8.46875 C 7.421875 -8.488281 7.898438 -8.515625 8.296875 -8.546875 C 8.703125 -8.578125 9.039062 -8.609375 9.3125 -8.640625 C 9.613281 -8.660156 9.867188 -8.6875 10.078125 -8.71875 Z M 10.078125 -8.71875 "/></g></g></g><g fill="#ccf381" fill-opacity="1"><g transform="translate(274.362018, 227.709646)"><g><path d="M 9.375 -8.375 C 9.3125 -8.34375 9.21875 -8.285156 9.09375 -8.203125 C 8.976562 -8.128906 8.816406 -8.023438 8.609375 -7.890625 C 8.398438 -7.753906 8.125 -7.566406 7.78125 -7.328125 C 7.832031 -7.429688 7.828125 -7.507812 7.765625 -7.5625 C 7.710938 -7.625 7.632812 -7.664062 7.53125 -7.6875 C 7.414062 -7.71875 7.273438 -7.726562 7.109375 -7.71875 C 6.847656 -7.695312 6.476562 -7.671875 6 -7.640625 C 5.519531 -7.609375 4.976562 -7.582031 4.375 -7.5625 C 4.375 -6.425781 4.363281 -5.5 4.34375 -4.78125 C 4.332031 -4.070312 4.328125 -3.515625 4.328125 -3.109375 C 4.304688 -2.640625 4.289062 -2.296875 4.28125 -2.078125 C 4.269531 -1.941406 4.226562 -1.804688 4.15625 -1.671875 C 4.09375 -1.546875 4 -1.414062 3.875 -1.28125 C 3.75 -1.144531 3.578125 -1.023438 3.359375 -0.921875 L 8.203125 -0.921875 C 8.421875 -0.921875 8.648438 -0.929688 8.890625 -0.953125 C 9.085938 -0.984375 9.300781 -1.019531 9.53125 -1.0625 C 9.757812 -1.113281 9.976562 -1.191406 10.1875 -1.296875 C 9.832031 -0.960938 9.476562 -0.703125 9.125 -0.515625 C 8.78125 -0.335938 8.460938 -0.210938 8.171875 -0.140625 C 7.828125 -0.046875 7.5 0.00390625 7.1875 0.015625 C 6.488281 0.015625 5.832031 0.0195312 5.21875 0.03125 C 4.601562 0.0390625 4.046875 0.0546875 3.546875 0.078125 C 3.046875 0.0976562 2.617188 0.125 2.265625 0.15625 C 1.910156 0.1875 1.65625 0.222656 1.5 0.265625 C 1.71875 0.046875 1.890625 -0.164062 2.015625 -0.375 C 2.140625 -0.59375 2.234375 -0.832031 2.296875 -1.09375 C 2.367188 -1.363281 2.410156 -1.660156 2.421875 -1.984375 C 2.441406 -2.316406 2.445312 -2.710938 2.4375 -3.171875 L 2.4375 -7.546875 C 2.238281 -7.546875 2.039062 -7.546875 1.84375 -7.546875 C 1.644531 -7.554688 1.453125 -7.570312 1.265625 -7.59375 L 2.4375 -8.203125 C 2.4375 -8.585938 2.4375 -8.988281 2.4375 -9.40625 C 2.4375 -9.832031 2.4375 -10.285156 2.4375 -10.765625 C 2.4375 -11.253906 2.429688 -11.773438 2.421875 -12.328125 C 2.421875 -12.890625 2.421875 -13.5 2.421875 -14.15625 C 2.097656 -14.15625 1.796875 -14.160156 1.515625 -14.171875 C 1.234375 -14.179688 0.96875 -14.191406 0.71875 -14.203125 L 2.71875 -15.265625 C 4.0625 -15.265625 5.210938 -15.269531 6.171875 -15.28125 C 7.128906 -15.300781 7.921875 -15.320312 8.546875 -15.34375 C 9.273438 -15.375 9.878906 -15.40625 10.359375 -15.4375 C 10.609375 -15.4375 10.769531 -15.414062 10.84375 -15.375 C 10.925781 -15.332031 10.957031 -15.285156 10.9375 -15.234375 C 10.925781 -15.191406 10.882812 -15.144531 10.8125 -15.09375 C 10.738281 -15.050781 10.675781 -15.019531 10.625 -15 C 10.5625 -14.96875 10.453125 -14.90625 10.296875 -14.8125 C 10.160156 -14.738281 9.96875 -14.617188 9.71875 -14.453125 C 9.476562 -14.285156 9.144531 -14.054688 8.71875 -13.765625 C 8.863281 -13.921875 8.925781 -14.035156 8.90625 -14.109375 C 8.882812 -14.191406 8.832031 -14.25 8.75 -14.28125 C 8.65625 -14.3125 8.53125 -14.328125 8.375 -14.328125 C 8.238281 -14.316406 8.035156 -14.304688 7.765625 -14.296875 C 7.492188 -14.285156 7.175781 -14.269531 6.8125 -14.25 C 6.457031 -14.238281 6.066406 -14.226562 5.640625 -14.21875 C 5.222656 -14.207031 4.796875 -14.195312 4.359375 -14.1875 C 4.359375 -13.050781 4.359375 -12.03125 4.359375 -11.125 C 4.367188 -10.21875 4.375 -9.390625 4.375 -8.640625 C 5.101562 -8.640625 5.753906 -8.648438 6.328125 -8.671875 C 6.910156 -8.691406 7.410156 -8.710938 7.828125 -8.734375 C 8.304688 -8.765625 8.734375 -8.789062 9.109375 -8.8125 C 9.347656 -8.8125 9.503906 -8.789062 9.578125 -8.75 C 9.660156 -8.71875 9.691406 -8.675781 9.671875 -8.625 C 9.660156 -8.582031 9.617188 -8.535156 9.546875 -8.484375 C 9.484375 -8.429688 9.425781 -8.394531 9.375 -8.375 Z M 9.375 -8.375 "/></g></g></g><g fill="#ccf381" fill-opacity="1"><g transform="translate(287.17849, 227.709646)"><g><path d="M 10.15625 -4.5 C 10.15625 -4.132812 10.035156 -3.757812 9.796875 -3.375 C 9.566406 -3 9.257812 -2.628906 8.875 -2.265625 C 8.5 -1.910156 8.070312 -1.570312 7.59375 -1.25 C 7.125 -0.925781 6.648438 -0.640625 6.171875 -0.390625 C 5.691406 -0.148438 5.226562 0.0390625 4.78125 0.1875 C 4.34375 0.332031 3.972656 0.410156 3.671875 0.421875 C 3.378906 0.429688 3.066406 0.40625 2.734375 0.34375 C 2.398438 0.28125 2.082031 0.195312 1.78125 0.09375 C 1.476562 0 1.207031 -0.0976562 0.96875 -0.203125 C 0.726562 -0.316406 0.566406 -0.414062 0.484375 -0.5 C 0.429688 -0.5625 0.390625 -0.625 0.359375 -0.6875 C 0.328125 -0.757812 0.3125 -0.832031 0.3125 -0.90625 C 0.3125 -0.988281 0.332031 -1.070312 0.375 -1.15625 C 0.425781 -1.25 0.503906 -1.34375 0.609375 -1.4375 C 0.710938 -1.519531 0.835938 -1.617188 0.984375 -1.734375 C 1.109375 -1.835938 1.269531 -1.96875 1.46875 -2.125 C 1.664062 -2.289062 1.910156 -2.488281 2.203125 -2.71875 C 2.097656 -2.601562 2.03125 -2.5 2 -2.40625 C 1.976562 -2.320312 1.96875 -2.238281 1.96875 -2.15625 C 1.976562 -2.070312 2.007812 -1.992188 2.0625 -1.921875 C 2.132812 -1.828125 2.257812 -1.722656 2.4375 -1.609375 C 2.613281 -1.492188 2.828125 -1.390625 3.078125 -1.296875 C 3.328125 -1.203125 3.609375 -1.117188 3.921875 -1.046875 C 4.242188 -0.984375 4.578125 -0.953125 4.921875 -0.953125 C 5.335938 -0.953125 5.75 -0.992188 6.15625 -1.078125 C 6.570312 -1.160156 6.945312 -1.296875 7.28125 -1.484375 C 7.613281 -1.679688 7.878906 -1.9375 8.078125 -2.25 C 8.285156 -2.570312 8.390625 -2.96875 8.390625 -3.4375 C 8.390625 -3.875 8.285156 -4.253906 8.078125 -4.578125 C 7.878906 -4.910156 7.613281 -5.207031 7.28125 -5.46875 C 6.957031 -5.738281 6.582031 -5.976562 6.15625 -6.1875 C 5.738281 -6.40625 5.3125 -6.617188 4.875 -6.828125 C 4.4375 -7.046875 4.003906 -7.265625 3.578125 -7.484375 C 3.160156 -7.710938 2.785156 -7.960938 2.453125 -8.234375 C 2.128906 -8.503906 1.863281 -8.8125 1.65625 -9.15625 C 1.457031 -9.507812 1.359375 -9.910156 1.359375 -10.359375 C 1.359375 -10.804688 1.460938 -11.238281 1.671875 -11.65625 C 1.890625 -12.082031 2.175781 -12.484375 2.53125 -12.859375 C 2.894531 -13.234375 3.304688 -13.578125 3.765625 -13.890625 C 4.222656 -14.210938 4.691406 -14.488281 5.171875 -14.71875 C 5.660156 -14.957031 6.132812 -15.140625 6.59375 -15.265625 C 7.0625 -15.398438 7.484375 -15.472656 7.859375 -15.484375 C 8.222656 -15.484375 8.570312 -15.460938 8.90625 -15.421875 C 9.238281 -15.390625 9.519531 -15.332031 9.75 -15.25 C 9.976562 -15.175781 10.132812 -15.078125 10.21875 -14.953125 C 10.3125 -14.835938 10.289062 -14.707031 10.15625 -14.5625 C 10.050781 -14.4375 9.921875 -14.304688 9.765625 -14.171875 C 9.617188 -14.054688 9.441406 -13.921875 9.234375 -13.765625 C 9.035156 -13.617188 8.785156 -13.457031 8.484375 -13.28125 C 8.546875 -13.375 8.578125 -13.453125 8.578125 -13.515625 C 8.585938 -13.585938 8.585938 -13.644531 8.578125 -13.6875 C 8.546875 -13.738281 8.515625 -13.78125 8.484375 -13.8125 C 8.429688 -13.851562 8.34375 -13.898438 8.21875 -13.953125 C 8.09375 -14.003906 7.9375 -14.050781 7.75 -14.09375 C 7.570312 -14.144531 7.363281 -14.1875 7.125 -14.21875 C 6.894531 -14.25 6.644531 -14.265625 6.375 -14.265625 C 5.957031 -14.265625 5.550781 -14.210938 5.15625 -14.109375 C 4.757812 -14.015625 4.410156 -13.859375 4.109375 -13.640625 C 3.804688 -13.429688 3.5625 -13.160156 3.375 -12.828125 C 3.195312 -12.503906 3.109375 -12.117188 3.109375 -11.671875 C 3.109375 -11.191406 3.207031 -10.769531 3.40625 -10.40625 C 3.613281 -10.039062 3.878906 -9.71875 4.203125 -9.4375 C 4.535156 -9.15625 4.914062 -8.898438 5.34375 -8.671875 C 5.769531 -8.453125 6.203125 -8.234375 6.640625 -8.015625 C 7.078125 -7.804688 7.503906 -7.59375 7.921875 -7.375 C 8.347656 -7.15625 8.722656 -6.910156 9.046875 -6.640625 C 9.378906 -6.367188 9.644531 -6.0625 9.84375 -5.71875 C 10.050781 -5.375 10.15625 -4.96875 10.15625 -4.5 Z M 10.15625 -4.5 "/></g></g></g></svg>