<?xml version="1.0" standalone="no"?>
<!DOCTYPE svg PUBLIC "-//W3C//DTD SVG 20010904//EN"
 "http://www.w3.org/TR/2001/REC-SVG-20010904/DTD/svg10.dtd">
<svg version="1.0" xmlns="http://www.w3.org/2000/svg"
 width="500.000000pt" height="500.000000pt" viewBox="0 0 500.000000 500.000000"
 preserveAspectRatio="xMidYMid meet">

<g transform="translate(0.000000,500.000000) scale(0.100000,-0.100000)"
fill="#000000" stroke="none">
<path d="M1095 3730 c-60 -4 -158 -8 -217 -9 -127 -1 -180 -18 -290 -90 -121
-79 -121 -82 13 -75 91 5 116 4 125 -7 26 -33 194 -534 352 -1049 l78 -255
138 -3 c128 -2 137 -1 132 15 -101 325 -406 1327 -404 1328 2 1 19 10 38 20
42 21 210 126 210 131 0 4 -14 4 -175 -6z"/>
<path d="M2655 3733 c-22 -2 -125 -7 -230 -11 -188 -9 -191 -9 -255 -42 -63
-32 -119 -68 -170 -110 l-25 -20 119 6 119 7 -6 -84 c-11 -175 -148 -617 -315
-1019 l-89 -215 55 -3 c30 -2 59 1 64 6 24 24 217 515 379 964 29 81 55 146
56 144 2 -2 15 -46 29 -97 42 -160 127 -444 134 -452 4 -5 38 7 76 26 38 18
95 44 127 57 31 13 57 28 57 34 0 6 -45 164 -100 350 -76 258 -97 342 -88 347
7 4 51 32 98 63 l85 56 -40 -2 c-22 -1 -58 -3 -80 -5z"/>
<path d="M4130 3730 c-63 -4 -161 -8 -218 -9 -127 -1 -182 -19 -297 -96 -46
-31 -87 -60 -90 -65 -4 -6 44 -8 128 -3 165 7 161 10 146 -122 -12 -106 -19
-142 -66 -314 -26 -94 -34 -136 -25 -139 6 -2 28 -15 48 -28 20 -14 38 -24 39
-22 5 6 135 394 170 511 34 110 38 118 69 131 30 12 212 119 261 152 22 16 35
16 -165 4z"/>
<path d="M3250 2934 c-200 -24 -545 -144 -699 -241 -134 -86 -266 -249 -336
-416 l-16 -38 92 3 91 3 28 88 c37 115 93 208 171 283 163 155 375 220 642
195 61 -6 130 -16 152 -22 90 -25 145 -69 131 -105 -9 -24 106 42 165 95 60
54 61 78 3 106 -72 34 -314 62 -424 49z"/>
<path d="M2784 2641 c-32 -17 -84 -52 -114 -80 l-55 -49 45 -134 45 -133 152
-3 151 -3 -73 213 c-40 117 -77 214 -82 215 -5 2 -36 -10 -69 -26z"/>
<path d="M3630 2625 c-30 -19 -59 -35 -66 -35 -6 0 -43 -79 -82 -175 l-71
-176 52 3 52 3 71 165 c67 155 106 250 101 250 -1 0 -27 -16 -57 -35z"/>
<path d="M1625 2162 c-5 -4 -10 -51 -10 -105 l0 -97 42 0 c23 0 44 3 47 8 2 4
-12 6 -33 4 l-37 -4 3 64 c2 34 5 80 6 101 3 38 0 42 -18 29z"/>
<path d="M1790 2162 c-12 -6 -15 -28 -15 -105 l0 -97 40 0 c22 0 47 4 54 9 10
6 0 8 -28 4 l-42 -6 3 102 c2 55 3 101 3 100 0 0 -7 -3 -15 -7z"/>
<path d="M2245 2160 c3 -5 18 -10 33 -10 21 0 24 2 12 10 -20 13 -53 13 -45 0z"/>
<path d="M2817 2148 c-7 -12 -29 -49 -47 -80 -19 -32 -37 -58 -41 -58 -4 0
-24 34 -46 75 -21 41 -41 75 -45 75 -7 0 -14 -43 -22 -142 -2 -32 -1 -58 2
-58 4 0 9 28 10 63 2 34 7 66 11 70 4 4 24 -24 44 -62 37 -74 38 -74 70 -11
10 20 29 49 42 65 l24 30 1 -77 c0 -64 3 -78 15 -78 14 0 15 14 9 103 -4 56
-8 104 -10 105 -1 2 -9 -7 -17 -20z"/>
<path d="M3107 2163 c-4 -3 -6 -47 -5 -97 1 -88 2 -89 7 -27 l6 63 64 -66 c35
-37 66 -64 70 -61 10 11 17 195 7 192 -5 -2 -8 -41 -7 -88 l2 -84 -52 50 c-28
28 -59 67 -69 87 -9 21 -20 35 -23 31z"/>
<path d="M1074 2068 c33 -106 31 -102 45 -94 7 5 7 13 1 24 -17 32 -50 145
-44 153 3 5 -3 9 -13 9 -18 0 -17 -6 11 -92z"/>
<path d="M1175 2138 c-1 -13 -4 -34 -8 -48 -5 -22 -5 -21 5 3 15 34 24 34 32
2 15 -59 49 -136 56 -128 13 13 -52 193 -70 193 -9 0 -15 -9 -15 -22z"/>
<path d="M1314 2125 c0 -19 0 -34 1 -32 1 1 9 17 18 35 14 30 14 32 -1 32 -13
0 -17 -9 -18 -35z"/>
<path d="M1467 2153 c-17 -27 -84 -193 -79 -193 4 0 15 18 24 41 16 37 20 40
50 37 29 -3 34 -8 42 -40 6 -22 16 -38 24 -38 9 0 12 6 8 16 -3 8 -16 50 -28
92 -22 80 -32 100 -41 85z m13 -72 c8 -30 7 -31 -21 -31 l-29 0 17 35 c19 40
20 39 33 -4z"/>
<path d="M1997 2153 c-17 -27 -84 -193 -79 -193 4 0 15 18 24 41 16 37 20 40
50 37 29 -3 34 -8 42 -40 6 -22 16 -38 24 -38 9 0 12 6 8 16 -3 8 -16 50 -28
92 -22 80 -32 100 -41 85z m13 -72 c8 -30 7 -31 -21 -31 l-29 0 17 35 c19 40
20 39 33 -4z"/>
<path d="M2355 2060 l0 -100 45 2 c40 1 41 2 10 5 -35 4 -35 4 -32 48 4 41 6
44 35 48 l32 4 -32 1 c-31 2 -33 4 -33 41 0 39 1 40 38 44 32 3 30 4 -13 5
l-50 2 0 -100z"/>
<path d="M2924 2151 c3 -4 6 -49 7 -100 l1 -91 42 2 c38 1 38 2 8 5 -25 3 -32
8 -28 20 3 8 6 28 6 44 0 24 4 29 24 29 14 0 27 4 30 8 3 5 -8 6 -25 4 -28 -4
-29 -3 -29 36 0 40 1 41 38 45 27 3 21 4 -21 5 -32 1 -56 -2 -53 -7z"/>
<path d="M3338 2060 l3 -100 42 2 c38 1 39 2 9 5 -25 3 -32 8 -28 20 3 8 6 27
6 43 0 19 6 30 18 33 16 4 16 5 0 6 -14 1 -18 10 -18 40 0 39 1 40 38 44 29 3
25 4 -18 5 l-55 2 3 -100z"/>
<path d="M3547 2153 l41 -4 -16 -39 c-10 -22 -22 -40 -29 -40 -7 0 -10 -7 -7
-15 3 -8 -3 -30 -15 -48 -12 -19 -21 -37 -21 -41 0 -3 24 -5 53 -4 51 1 51 2
9 5 -24 2 -42 7 -40 11 31 63 44 82 57 83 10 0 12 2 4 6 -9 3 -7 15 7 43 11
22 20 42 20 45 0 3 -24 4 -52 3 -49 -1 -50 -2 -11 -5z"/>
<path d="M3688 2060 l3 -100 42 2 c37 1 38 2 10 5 -32 4 -33 6 -33 49 0 43 1
44 33 45 l32 1 -30 7 c-26 5 -30 11 -33 43 -3 37 -3 37 40 41 40 3 39 4 -12 5
l-55 2 3 -100z"/>
<path d="M3900 2156 c0 -8 51 -13 56 -5 3 5 -9 9 -25 9 -17 0 -31 -2 -31 -4z"/>
<path d="M2146 2115 c-16 -25 -21 -80 -10 -110 13 -34 90 -56 123 -36 10 6 2
9 -23 9 -52 0 -86 33 -86 84 0 22 5 48 10 59 15 27 5 24 -14 -6z"/>
<path d="M3860 2125 c-20 -24 -7 -48 38 -73 27 -15 42 -30 42 -43 0 -11 5 -17
10 -14 22 14 8 45 -32 72 -30 20 -43 36 -42 51 1 26 0 26 -16 7z"/>
<path d="M3847 1983 c-16 -15 -5 -23 31 -22 21 1 29 3 17 6 -11 3 -25 9 -31
14 -6 5 -14 6 -17 2z"/>
<path d="M1275 1858 c2 -7 36 -114 75 -238 40 -124 75 -228 79 -232 10 -11
220 310 300 460 12 22 11 22 -47 22 l-59 0 -18 -40 c-26 -57 -33 -58 -46 -5
l-11 45 -139 0 c-106 0 -137 -3 -134 -12z"/>
<path d="M2142 1786 c20 -307 235 -569 553 -675 120 -40 279 -65 365 -57 137
12 325 84 471 181 86 58 92 67 31 49 -173 -53 -462 -72 -601 -39 -294 69 -505
266 -567 530 -10 39 -18 76 -20 83 -3 9 -35 12 -120 12 l-117 0 5 -84z"/>
<path d="M2934 1635 c50 -129 94 -234 97 -232 15 5 209 242 209 254 0 7 23 58
50 113 l50 100 -43 0 c-43 0 -43 0 -66 -55 -13 -30 -26 -55 -31 -55 -4 0 -16
24 -27 53 l-20 52 -155 3 -156 2 92 -235z"/>
</g>
</svg>
